<?xml version="1.0" encoding="UTF-8"?>
<svg version="1.1" xmlns="http://www.w3.org/2000/svg" width="500" height="500">
<path d="M0 0 C2.6248476 3.93727141 2.09085923 7.14280873 1.9375 11.6875 C1.74471125 22.71501678 3.08142089 33.37017915 4.62402344 44.27050781 C5.05435266 47.3945862 5.41847625 50.52297347 5.77392578 53.65625 C6.55386707 60.44830894 7.77979236 67.04344739 9.27734375 73.7109375 C14.80442971 98.86664766 15.35449024 124.3560249 15 150 C14.98743164 150.9384375 14.97486328 151.876875 14.96191406 152.84375 C14.61516246 171.63910216 11.29171092 189.98483709 6 208 C5.60254284 209.43444689 5.20678435 210.86936526 4.8125 212.3046875 C2.77428376 219.61545368 0.59535556 226.58453459 -2.7890625 233.41015625 C-3.78608553 235.54249906 -4.61618247 237.62788386 -5.41796875 239.8359375 C-6.9136299 243.89253876 -8.72375938 247.71430777 -10.6875 251.5625 C-11.20534058 252.58525024 -11.20534058 252.58525024 -11.73364258 253.62866211 C-12.81557004 255.75603656 -13.90615872 257.87872924 -15 260 C-15.35320312 260.68707031 -15.70640625 261.37414062 -16.0703125 262.08203125 C-19.66149213 269.0382792 -23.2907375 275.72098333 -28 282 C-28.33 282.99 -28.66 283.98 -29 285 C-29.66 285 -30.32 285 -31 285 C-31.2371875 285.68449219 -31.474375 286.36898438 -31.71875 287.07421875 C-33.26508894 290.60534028 -35.30380066 293.66554983 -37.5 296.8125 C-37.90347656 297.40998047 -38.30695313 298.00746094 -38.72265625 298.62304688 C-39.76039782 300.12143611 -40.87475797 301.56615614 -42 303 C-42.66 303 -43.32 303 -44 303 C-44.2475 303.721875 -44.495 304.44375 -44.75 305.1875 C-46.12269592 308.27606582 -47.72353296 310.51011418 -50 313 C-50.66 313 -51.32 313 -52 313 C-52.37125 313.8353125 -52.37125 313.8353125 -52.75 314.6875 C-54.22924818 317.42410913 -55.93467439 319.67650869 -58 322 C-58.66 322 -59.32 322 -60 322 C-60 322.66 -60 323.32 -60 324 C-60.66 324 -61.32 324 -62 324 C-62.226875 324.55171875 -62.45375 325.1034375 -62.6875 325.671875 C-64.38725926 328.68692417 -66.54804816 330.81230369 -69 333.25 C-70.3303125 334.58804688 -70.3303125 334.58804688 -71.6875 335.953125 C-74 338 -74 338 -76 338 C-76 338.66 -76 339.32 -76 340 C-76.66 340 -77.32 340 -78 340 C-78 340.66 -78 341.32 -78 342 C-78.66 342 -79.32 342 -80 342 C-80 342.66 -80 343.32 -80 344 C-84.47058824 348 -84.47058824 348 -87 348 C-87 348.66 -87 349.32 -87 350 C-88.50952148 351.32519531 -88.50952148 351.32519531 -90.62109375 352.828125 C-91.39259766 353.38113281 -92.16410156 353.93414062 -92.95898438 354.50390625 C-93.77689453 355.08011719 -94.59480469 355.65632813 -95.4375 356.25 C-96.22060547 356.81074219 -97.00371094 357.37148438 -97.81054688 357.94921875 C-100.19586012 359.64936794 -102.59505615 361.32775558 -105 363 C-105.82516113 363.58072266 -106.65032227 364.16144531 -107.50048828 364.75976562 C-108.29567871 365.30826172 -109.09086914 365.85675781 -109.91015625 366.421875 C-110.62437744 366.9178418 -111.33859863 367.41380859 -112.07446289 367.92480469 C-114 369 -114 369 -117 369 C-117 369.66 -117 370.32 -117 371 C-133.07097184 379.24646205 -148.46346653 386.39639231 -166 391 C-167.16595703 391.30744141 -167.16595703 391.30744141 -168.35546875 391.62109375 C-170.56211119 392.15515918 -172.76618431 392.59385169 -175 393 C-175.9796875 393.185625 -176.959375 393.37125 -177.96875 393.5625 C-198.98076565 396.96985389 -221.63385959 396.35118724 -242 390 C-247.5245669 395.94696839 -252.83895647 401.84866381 -257.625 408.41796875 C-258.07875 408.94003906 -258.5325 409.46210938 -259 410 C-259.66 410 -260.32 410 -261 410 C-261.23074219 410.54269531 -261.46148437 411.08539063 -261.69921875 411.64453125 C-263.38527849 414.69766645 -265.49392445 417.08388218 -267.8125 419.6875 C-268.66457031 420.66074219 -269.51664063 421.63398438 -270.39453125 422.63671875 C-273.10711836 425.09716133 -274.39392314 425.81756778 -278 426 C-280.70637529 425.02269781 -281.70256222 424.59487555 -283 422 C-283.7190028 416.84714658 -282.24401905 414.31209592 -279.2890625 410.3203125 C-278.86367188 409.88460938 -278.43828125 409.44890625 -278 409 C-277.34 409 -276.68 409 -276 409 C-276 408.34 -276 407.68 -276 407 C-275.34 407 -274.68 407 -274 407 C-273.64421875 406.18208984 -273.64421875 406.18208984 -273.28125 405.34765625 C-271.67082426 402.39684567 -269.65847894 400.01295783 -267.5 397.4375 C-265.18760361 394.67088289 -263.00082301 392.00123452 -261 389 C-260.34 389 -259.68 389 -259 389 C-258.731875 388.443125 -258.46375 387.88625 -258.1875 387.3125 C-257 385 -257 385 -255.23828125 382.73046875 C-253.61579627 380.00347004 -253.61579627 380.00347004 -255.0625 377.125 C-255.701875 376.09375 -256.34125 375.0625 -257 374 C-257.68061707 372.8460462 -258.35497597 371.68838129 -259.0234375 370.52734375 C-259.53148926 369.64731689 -259.53148926 369.64731689 -260.04980469 368.74951172 C-262.58416951 364.08320691 -264.21656005 358.98659197 -266 354 C-266.433125 352.84242188 -266.86625 351.68484375 -267.3125 350.4921875 C-271.68306529 338.65523984 -274.36697987 326.71070315 -276.625 314.3125 C-276.8415625 313.15427734 -277.058125 311.99605469 -277.28125 310.80273438 C-279.40909903 299.23748087 -280.18647839 288.1963081 -280.18530273 276.44677734 C-280.18747006 274.03334386 -280.2056202 271.62038309 -280.22460938 269.20703125 C-280.34213328 236.82547139 -272.5441672 204.90824317 -258 176 C-257.64502441 175.29278809 -257.29004883 174.58557617 -256.92431641 173.85693359 C-252.99797358 166.09809794 -249.0167629 158.56465971 -243.83203125 151.55859375 C-241.03572733 147.6533079 -238.52770233 143.56319407 -236.01953125 139.46801758 C-235.06471992 137.94501732 -234.03819493 136.46742827 -233 135 C-232.34 135 -231.68 135 -231 135 C-230.7421875 134.43796875 -230.484375 133.8759375 -230.21875 133.296875 C-228.85830223 130.73295421 -227.27211038 128.54773635 -225.5 126.25 C-224.8915625 125.45078125 -224.283125 124.6515625 -223.65625 123.828125 C-223.1096875 123.22484375 -222.563125 122.6215625 -222 122 C-221.34 122 -220.68 122 -220 122 C-219.731875 121.4225 -219.46375 120.845 -219.1875 120.25 C-217.97070811 117.94449957 -216.69666121 115.97943808 -215 114 C-214.34 114 -213.68 114 -213 114 C-213 113.34 -213 112.68 -213 112 C-212.34 112 -211.68 112 -211 112 C-211 111.34 -211 110.68 -211 110 C-210.34 110 -209.68 110 -209 110 C-209 109.34 -209 108.68 -209 108 C-207.35546875 106.37890625 -207.35546875 106.37890625 -205.1875 104.5625 C-202.17536735 102.02660668 -202.17536735 102.02660668 -199.36328125 99.27734375 C-198 98 -198 98 -196 98 C-196 97.34 -196 96.68 -196 96 C-194.171875 94.37890625 -194.171875 94.37890625 -191.75 92.5625 C-190.96109375 91.96566406 -190.1721875 91.36882812 -189.359375 90.75390625 C-188.58078125 90.17511719 -187.8021875 89.59632812 -187 89 C-186.28328125 88.43152344 -185.5665625 87.86304687 -184.828125 87.27734375 C-183 86 -183 86 -181 86 C-181 85.34 -181 84.68 -181 84 C-178.75849376 82.3595846 -176.5321169 80.85337913 -174.1875 79.375 C-173.54490234 78.95476562 -172.90230469 78.53453125 -172.24023438 78.1015625 C-167.38145546 75 -167.38145546 75 -164 75 C-164 74.34 -164 73.68 -164 73 C-156.30351758 68.69609148 -148.48551808 64.68112809 -140.54907227 60.84057617 C-138.6964639 59.94184852 -136.84926163 59.03260795 -135.00195312 58.12304688 C-127.81786807 54.62120431 -120.64851086 51.64590875 -113.07104492 49.07568359 C-110.18762653 48.06571925 -107.41623981 46.92667018 -104.625 45.6875 C-98.53643883 43.08632225 -92.28669981 41.05906514 -86 39 C-78.7322702 36.61817151 -71.5976784 34.19650085 -64.59375 31.1171875 C-61.86643987 29.94247259 -59.10581636 28.94456406 -56.3125 27.9375 C-49.41999963 25.3097867 -42.78378956 22.16790413 -36.125 19 C-35.04259033 18.48945068 -33.96018066 17.97890137 -32.8449707 17.45288086 C-27.13154554 14.70400635 -22.08664103 11.76993559 -17 8 C-16.34 8 -15.68 8 -15 8 C-15 7.34 -15 6.68 -15 6 C-10.55120716 1.53965185 -6.4840664 -1.16713195 0 0 Z M-32 60 C-33.33898399 61.95467752 -34.67129047 63.9133579 -36 65.875 C-37.11375 67.51082031 -37.11375 67.51082031 -38.25 69.1796875 C-40.17574856 71.73004833 -40.17574856 71.73004833 -40 74 C-40.66 74 -41.32 74 -42 74 C-42.66 75.98 -43.32 77.96 -44 80 C-44.66 80 -45.32 80 -46 80 C-46.30292969 80.56847656 -46.60585938 81.13695313 -46.91796875 81.72265625 C-49.00228113 85.56420429 -51.10714233 89.27986747 -53.6875 92.8125 C-55.9663597 95.771172 -55.9663597 95.771172 -57.1875 98.375 C-58 100 -58 100 -60 101 C-60.10441406 100.24332031 -60.20882812 99.48664063 -60.31640625 98.70703125 C-61.25378726 93.62374794 -62.58952288 88.6753386 -63.9375 83.6875 C-64.20240234 82.67365234 -64.46730469 81.65980469 -64.74023438 80.61523438 C-64.99998047 79.65294922 -65.25972656 78.69066406 -65.52734375 77.69921875 C-65.76187256 76.82096436 -65.99640137 75.94270996 -66.23803711 75.0378418 C-66.80619688 72.81308766 -66.80619688 72.81308766 -69 72 C-70.28490069 75.85470206 -69.54371946 78.03947775 -68.6875 82 C-68.40316681 83.35797271 -68.11931586 84.71604647 -67.8359375 86.07421875 C-67.55760647 87.38287949 -67.27898112 88.69147769 -67 90 C-66.59285712 91.93515502 -66.19551889 93.87242608 -65.8125 95.8125 C-65.65394531 96.58207031 -65.49539063 97.35164063 -65.33203125 98.14453125 C-65.22246094 99.08683594 -65.11289062 100.02914062 -65 101 C-64.91194092 101.73001221 -64.82388184 102.46002441 -64.7331543 103.2121582 C-64.22517838 110.6966274 -66.73545547 114.73690127 -71.1875 120.5625 C-72.35148471 122.14432538 -73.51167409 123.72895087 -74.66796875 125.31640625 C-75.22919434 126.08484863 -75.79041992 126.85329102 -76.36865234 127.64501953 C-80.98802247 133.84297321 -80.98802247 133.84297321 -83 141 C-83.66 141 -84.32 141 -85 141 C-85.99 142.670625 -85.99 142.670625 -87 144.375 C-87.556875 145.31472656 -87.556875 145.31472656 -88.125 146.2734375 C-89.15068348 147.97472667 -89.15068348 147.97472667 -89 150 C-89.66 150 -90.32 150 -91 150 C-91.81567174 151.43570266 -92.62742093 152.87363434 -93.4375 154.3125 C-94.11619141 155.51326172 -94.11619141 155.51326172 -94.80859375 156.73828125 C-96.11090548 159.06211429 -96.11090548 159.06211429 -97 162 C-97.66 162 -98.32 162 -99 162 C-99.16580566 161.42894531 -99.33161133 160.85789062 -99.50244141 160.26953125 C-101.61089094 153.11530466 -103.97969944 146.06239636 -106.375 139 C-109.71784011 129.06188141 -112.79065662 119.11136106 -115.47363281 108.97705078 C-116.35013002 105.68490126 -117.26578946 102.40480942 -118.1875 99.125 C-118.49042969 98.03445312 -118.79335938 96.94390625 -119.10546875 95.8203125 C-119.88134962 93.37408548 -120.76951182 91.24415025 -122 89 C-121.0628299 99.70346898 -119.94756031 110.35305569 -116.91796875 120.6875 C-115.40321422 126.15350784 -114.16250682 131.68651579 -112.8894043 137.21313477 C-111.18190359 144.5222797 -109.33930357 151.74297897 -106.48046875 158.6953125 C-103.16031201 167.50225393 -103.16031201 167.50225393 -104.69238281 172.05957031 C-106.87779741 176.44071781 -109.72314367 180.34210314 -112.67529297 184.23388672 C-114.38313217 186.51079582 -115.88152847 188.89075544 -117.375 191.3125 C-117.92027344 192.16585937 -118.46554687 193.01921875 -119.02734375 193.8984375 C-120.63110719 196.41999823 -122.22608398 198.9465282 -123.81640625 201.4765625 C-139.64002565 226.64002565 -139.64002565 226.64002565 -143 230 C-145.73631521 222.59139953 -148.35193 215.27878031 -150.2265625 207.59765625 C-150.97354963 204.88943905 -150.97354963 204.88943905 -152.32421875 202 C-154.74884524 196.4799634 -156.41184326 190.69082739 -158.1875 184.9375 C-158.38153412 184.30972656 -158.57556824 183.68195313 -158.77548218 183.03515625 C-165.36977321 161.63743025 -171.29159527 140.10404398 -175 118 C-175.33 118 -175.66 118 -176 118 C-175.68621949 128.65771721 -175.15432809 138.87904897 -172.8125 149.3046875 C-172.08992572 152.59101091 -171.50823367 155.85783162 -170.97241211 159.17700195 C-169.74885828 166.69803171 -168.02779008 173.9451311 -165.90673828 181.26220703 C-164.42868273 186.37294062 -163.16047178 191.49616501 -162 196.6875 C-160.49547553 203.32689948 -158.53184189 209.70301349 -156.30078125 216.140625 C-154.33299458 221.86890436 -152.69796963 227.6987513 -151.015625 233.515625 C-150.38222626 235.68866991 -149.71577358 237.85267927 -149 240 C-149.90527344 241.83081055 -149.90527344 241.83081055 -151.359375 243.88671875 C-151.89344971 244.65314697 -152.42752441 245.4195752 -152.9777832 246.20922852 C-153.56261475 247.02705811 -154.14744629 247.8448877 -154.75 248.6875 C-155.33676514 249.52659912 -155.92353027 250.36569824 -156.52807617 251.23022461 C-158.34383895 253.826024 -160.17175549 256.41298232 -162 259 C-164.11316945 262.01465081 -166.21459632 265.03721638 -168.3125 268.0625 C-168.7859082 268.73434326 -169.25931641 269.40618652 -169.74707031 270.09838867 C-172.18169116 273.25109032 -172.18169116 273.25109032 -173 277 C-173.66 277 -174.32 277 -175 277 C-176.58311417 279.13937864 -176.58311417 279.13937864 -178.1875 281.875 C-180.65022877 285.85246153 -183.15341008 289.77543885 -185.8125 293.625 C-186.37582031 294.44226563 -186.93914062 295.25953125 -187.51953125 296.1015625 C-189 298 -189 298 -191 299 C-191.268125 297.906875 -191.53625 296.81375 -191.8125 295.6875 C-192.66732605 292.28625551 -193.5391666 288.89002657 -194.4375 285.5 C-194.66308594 284.6440625 -194.88867188 283.788125 -195.12109375 282.90625 C-195.9906673 279.89679089 -195.9906673 279.89679089 -197.3046875 276.640625 C-199.83794159 269.97901819 -201.72348429 263.0958353 -203.6875 256.25 C-203.9045459 255.4953244 -204.1215918 254.7406488 -204.34521484 253.96310425 C-207.79106571 241.91414395 -210.80449715 229.80041324 -213.5 217.5625 C-213.66535248 216.8139978 -213.83070496 216.06549561 -214.00106812 215.29431152 C-216.55032766 203.68473545 -218.72364403 192.05814706 -220.125 180.25 C-220.21136719 179.54101562 -220.29773438 178.83203125 -220.38671875 178.1015625 C-220.59350417 176.40132683 -220.79712384 174.70070656 -221 173 C-221.66 173 -222.32 173 -223 173 C-222.40910498 201.68795299 -218.37336944 230.60103137 -210.35546875 258.1796875 C-208.43169356 264.86824413 -206.83743522 271.64464931 -205.23095703 278.4152832 C-203.80855139 284.26432181 -202.07104141 289.85855183 -199.91821289 295.48144531 C-198.43234304 299.55701921 -197.07643009 303.63584187 -197 308 C-198.875 311.5 -198.875 311.5 -201 314 C-201 314.66 -201 315.32 -201 316 C-201.66 316 -202.32 316 -203 316 C-204.37513731 317.9732912 -205.63327592 319.94432675 -206.875 322 C-210.89527779 328.48690241 -215.31691438 334.56675789 -220.01318359 340.58007812 C-222.60174846 343.93830848 -224.68735196 346.90485253 -226 351 C-229.69692442 348.53538372 -229.73764966 347.32212472 -230.875 343.125 C-232.1133515 338.83732431 -233.44351281 334.76725127 -235.25 330.6875 C-248.4143695 299.87641433 -259.04494644 263.21286662 -260.65625 229.6171875 C-260.750301 226.8436973 -260.750301 226.8436973 -263 225 C-263.48798433 245.44112128 -262.18362839 266.67953791 -256.90625 286.49609375 C-256.19295282 289.2539712 -255.5337454 292.0074072 -254.90625 294.78515625 C-252.44123455 305.64293835 -249.53372651 316.16304875 -245.82226562 326.65966797 C-244.93127325 329.19561003 -244.06599205 331.73951369 -243.203125 334.28515625 C-242.59432719 336.06530167 -241.98496383 337.84525378 -241.375 339.625 C-241.0980127 340.44234619 -240.82102539 341.25969238 -240.53564453 342.10180664 C-239.17680088 346.01461665 -237.70737446 349.65432727 -235.7421875 353.3046875 C-234.48324164 355.73356284 -233.99534666 356.7487198 -234.046875 359.53125 C-234.69791667 361.35416667 -235.34895833 363.17708333 -236 365 C-236.66 365 -237.32 365 -238 365 C-242.00536032 369.88364414 -245.42128097 375.23580452 -248 381 C-247.38125 381.28875 -246.7625 381.5775 -246.125 381.875 C-244 383 -244 383 -242 385 C-241.175 384.05125 -240.35 383.1025 -239.5 382.125 C-239.0359375 381.59132813 -238.571875 381.05765625 -238.09375 380.5078125 C-236.80427542 379.04063579 -236.80427542 379.04063579 -237 377 C-236.34 377 -235.68 377 -235 377 C-235 376.34 -235 375.68 -235 375 C-234.34 375 -233.68 375 -233 375 C-231.18371224 373.05624046 -231.18371224 373.05624046 -229.375 370.625 C-228.74335938 369.81289063 -228.11171875 369.00078125 -227.4609375 368.1640625 C-225.81349192 366.15890121 -225.81349192 366.15890121 -226 364 C-223.83336548 363.85368991 -221.66668971 363.70799053 -219.5 363.5625 C-218.82364502 363.51665771 -218.14729004 363.47081543 -217.45043945 363.42358398 C-213.9923059 363.19123503 -210.53487824 362.97408277 -207.07421875 362.78125 C-173.10674359 360.8695127 -132.39280949 356.9620986 -102 341 C-106.53355828 339.57236052 -110.13382269 340.9060199 -114.5625 342.1875 C-128.86171416 346.13215835 -143.26006787 349.23953036 -158 351 C-158.97864014 351.11939941 -158.97864014 351.11939941 -159.97705078 351.24121094 C-171.87954271 352.6709564 -183.81243214 353.52845179 -195.77368164 354.30273438 C-202.53245524 354.74226935 -209.26675816 355.26305235 -216 356 C-214.42486134 353.24350734 -212.82094214 350.78001463 -210.8125 348.3125 C-208.79437278 346.22734216 -208.79437278 346.22734216 -209 344 C-208.34 344 -207.68 344 -207 344 C-205.36860063 342.07412421 -203.86276775 340.15673283 -202.375 338.125 C-201.95476562 337.56941406 -201.53453125 337.01382812 -201.1015625 336.44140625 C-198.74055094 333.5322565 -198.74055094 333.5322565 -198 330 C-197.34 330 -196.68 330 -196 330 C-195.34 328.35 -194.68 326.7 -194 325 C-193.34 325 -192.68 325 -192 325 C-190.47768707 323.08401641 -190.47768707 323.08401641 -189 320.6875 C-188.484375 319.88699219 -187.96875 319.08648437 -187.4375 318.26171875 C-186.963125 317.51535156 -186.48875 316.76898438 -186 316 C-184 313 -184 313 -180.80151367 312.17211914 C-179.42576463 311.94659589 -178.04764112 311.73528193 -176.66796875 311.53515625 C-175.92807205 311.41702576 -175.18817535 311.29889526 -174.42585754 311.17718506 C-172.83858198 310.92512047 -171.25037147 310.67888783 -169.66137695 310.43789673 C-166.35591217 309.93631129 -163.05517895 309.40652353 -159.75393677 308.87797546 C-158.11523001 308.61588521 -156.47629292 308.35523096 -154.83712769 308.09602356 C-148.53912669 307.09848217 -142.2629609 306.01204574 -136 304.8125 C-134.85954224 304.59895874 -134.85954224 304.59895874 -133.69604492 304.38110352 C-128.48336586 303.37449723 -123.3489008 302.11718627 -118.20410156 300.80981445 C-114.91981521 299.97973385 -111.62917756 299.18048016 -108.3359375 298.38671875 C-90.3835966 294.0234178 -73.15299786 288.84907688 -56 282 C-60.0178522 280.35862178 -63.19512658 281.82391461 -67.0625 283.1875 C-75.51587378 286.00726243 -84.06266667 287.83368338 -92.79589844 289.55175781 C-94.89778288 289.97921238 -96.98453161 290.45044623 -99.07421875 290.93359375 C-105.96223331 292.47808852 -112.92411638 293.65303464 -119.875 294.875 C-120.6176712 295.00595062 -121.36034241 295.13690125 -122.1255188 295.27182007 C-132.37842234 297.07488897 -142.64031667 298.77937354 -152.9375 300.3125 C-154.0001709 300.47153809 -155.0628418 300.63057617 -156.15771484 300.79443359 C-162.7575175 301.75262248 -169.35265459 302.46536315 -176 303 C-175.67 301.68 -175.34 300.36 -175 299 C-174.34 299 -173.68 299 -173 299 C-171.64704933 297.32097054 -171.64704933 297.32097054 -170.3125 295.125 C-168.18936416 291.80219654 -166.00366668 288.54326162 -163.7265625 285.32421875 C-160.70317046 281.02137727 -157.73642517 276.68555158 -154.81591797 272.31225586 C-153.61335433 270.51209411 -152.40228213 268.71759584 -151.18408203 266.92797852 C-148.54005007 263.0098272 -145.97900542 259.2008197 -144.01953125 254.890625 C-140.24388882 246.96267273 -140.24388882 246.96267273 -135.97753906 245.13232422 C-131.05960332 243.66677527 -126.08428268 242.99756009 -121.00073242 242.39746094 C-108.90610611 240.79547154 -97.00884321 237.96246298 -85.1875 235 C-84.43117279 234.81146454 -83.67484558 234.62292908 -82.89559937 234.42868042 C-70.58547666 231.34276891 -58.42405043 227.85089773 -46.3125 224.0625 C-45.5419931 223.82362061 -44.77148621 223.58474121 -43.97763062 223.33862305 C-41.81132589 222.66373166 -39.64917417 221.97715499 -37.48828125 221.28515625 C-36.25634033 220.89207275 -35.02439941 220.49898926 -33.75512695 220.09399414 C-30.87458083 219.30436812 -30.87458083 219.30436812 -30 217 C-39.0208912 218.17795782 -39.0208912 218.17795782 -47.8125 220.4375 C-52.53271448 221.95067881 -57.27539117 222.86699939 -62.15185547 223.73632812 C-67.26553086 224.65527367 -72.34277129 225.69920545 -77.42236328 226.79052734 C-90.09752799 229.51029953 -102.81155527 231.68339354 -115.63183594 233.59863281 C-117.95688668 233.95358096 -117.95688668 233.95358096 -120.01660156 234.54589844 C-122.31608773 235.07236868 -124.39390207 235.0971485 -126.75 235.0625 C-127.54921875 235.05347656 -128.3484375 235.04445313 -129.171875 235.03515625 C-130.07679688 235.01775391 -130.07679688 235.01775391 -131 235 C-129.29276034 232.3534595 -127.58418178 229.70778665 -125.875 227.0625 C-125.370896 226.28213379 -124.86679199 225.50176758 -124.34741211 224.69775391 C-121.78365653 220.73502296 -119.20423353 216.78640391 -116.5625 212.875 C-112.04670859 206.85034827 -112.04670859 206.85034827 -110 200 C-109.34 200 -108.68 200 -108 200 C-107.62488281 199.21496094 -107.24976563 198.42992187 -106.86328125 197.62109375 C-102.16943975 187.9851219 -102.16943975 187.9851219 -99.125 183.9375 C-96.70694011 181.19914425 -96.70694011 181.19914425 -97 178 C-96.34 178 -95.68 178 -95 178 C-94.67 177.01 -94.34 176.02 -94 175 C-90.67377409 173.33979968 -87.31179647 172.55941587 -83.6875 171.8125 C-72.98104458 169.42375995 -62.50780935 166.13066407 -52 163 C-51.16855469 162.75596436 -50.33710938 162.51192871 -49.48046875 162.26049805 C-42.72608864 160.26581124 -36.05058408 158.05526914 -29.375 155.8125 C-28.27542969 155.44447266 -27.17585937 155.07644531 -26.04296875 154.69726562 C-23.36151209 153.79956057 -20.68053662 152.90044776 -18 152 C-21.16235682 150.94588106 -21.97691342 151.01666754 -25.0859375 151.75 C-25.91971924 151.94279541 -26.75350098 152.13559082 -27.61254883 152.33422852 C-28.52415771 152.55393311 -29.4357666 152.7736377 -30.375 153 C-31.33237061 153.22421631 -32.28974121 153.44843262 -33.27612305 153.67944336 C-36.51989831 154.44288176 -39.76014961 155.22007898 -43 156 C-44.18835449 156.28504395 -45.37670898 156.57008789 -46.60107422 156.86376953 C-52.79849986 158.3517067 -58.99378513 159.84825782 -65.1875 161.3515625 C-73.11574867 163.2741628 -81.05481458 165.14880629 -89 167 C-88.35933594 165.99582031 -87.71867188 164.99164063 -87.05859375 163.95703125 C-82.25888075 156.38470918 -77.69893932 148.79673008 -73.5390625 140.8515625 C-72.14790637 138.27403973 -70.65940944 135.82835249 -69.0625 133.375 C-66.739275 130.23257856 -66.739275 130.23257856 -67 127 C-66.34 127 -65.68 127 -65 127 C-64.15930585 125.39967863 -63.32768495 123.79458829 -62.5 122.1875 C-62.0359375 121.29417969 -61.571875 120.40085938 -61.09375 119.48046875 C-59.79826859 116.99431974 -59.79826859 116.99431974 -60 114 C-59.34 114 -58.68 114 -58 114 C-57.34 113.01 -56.68 112.02 -56 111 C-53.5234375 109.859375 -53.5234375 109.859375 -50.375 108.75 C-44.88857366 106.74097266 -39.53124527 104.54999791 -34.1875 102.1875 C-33.47577637 101.87329102 -32.76405273 101.55908203 -32.03076172 101.23535156 C-30.35278835 100.49260826 -28.67623175 99.74666549 -27 99 C-27 98.67 -27 98.34 -27 98 C-31.97822936 97.69945674 -35.99778932 98.76451446 -40.625 100.4375 C-48.67275571 103.26530393 -48.67275571 103.26530393 -52 104 C-49.31125221 97.33533794 -45.96702873 91.04412897 -42.625 84.6875 C-40.94166722 81.47648508 -39.26050444 78.26444428 -37.58691406 75.04833984 C-36.54396323 73.04491152 -35.49402823 71.04510074 -34.43652344 69.04931641 C-33.97020508 68.1526123 -33.50388672 67.2559082 -33.0234375 66.33203125 C-32.60755371 65.54159424 -32.19166992 64.75115723 -31.76318359 63.93676758 C-31.51133301 63.29763428 -31.25948242 62.65850098 -31 62 C-31.33 61.34 -31.66 60.68 -32 60 Z M-70 67 C-69 71 -69 71 -69 71 Z M-25 96 C-25.66 96.66 -26.32 97.32 -27 98 C-25.68 97.67 -24.36 97.34 -23 97 C-23.66 96.67 -24.32 96.34 -25 96 Z M-223 163 C-223 165.97 -223 168.94 -223 172 C-222.67 172 -222.34 172 -222 172 C-222 169.03 -222 166.06 -222 163 C-222.33 163 -222.66 163 -223 163 Z " fill="#F08C1F" transform="translate(384,31)"/>
<path d="M0 0 C0.99 0 1.98 0 3 0 C1.61951891 4.02640318 -0.30446885 6.73268952 -3 10 C-4.0268343 11.6502694 -5.03567924 13.31243867 -6 15 C-3.525 16.485 -3.525 16.485 -1 18 C-0.195625 17.01 0.60875 16.02 1.4375 15 C2.283125 14.01 3.12875 13.02 4 12 C4.33 12 4.66 12 5 12 C5.1875 14.375 5.1875 14.375 5 17 C4.01 17.66 3.02 18.32 2 19 C1.7497843 22.08365871 1.7497843 22.08365871 2 25 C1.42894531 25.0721875 0.85789063 25.144375 0.26953125 25.21875 C-2.84062884 26.2893731 -4.16383739 28.02693895 -6.3125 30.5 C-7.09367187 31.39460938 -7.87484375 32.28921875 -8.6796875 33.2109375 C-11.43216418 36.51947008 -14.04836386 39.91005747 -16.58984375 43.3828125 C-17.05519531 43.91648437 -17.52054688 44.45015625 -18 45 C-18.66 45 -19.32 45 -20 45 C-20.23074219 45.54269531 -20.46148437 46.08539063 -20.69921875 46.64453125 C-22.38527849 49.69766645 -24.49392445 52.08388218 -26.8125 54.6875 C-28.09060547 56.14736328 -28.09060547 56.14736328 -29.39453125 57.63671875 C-32.10711836 60.09716133 -33.39392314 60.81756778 -37 61 C-39.70637529 60.02269781 -40.70256222 59.59487555 -42 57 C-42.7190028 51.84714658 -41.24401905 49.31209592 -38.2890625 45.3203125 C-37.86367187 44.88460937 -37.43828125 44.44890625 -37 44 C-36.34 44 -35.68 44 -35 44 C-35 43.34 -35 42.68 -35 42 C-34.34 42 -33.68 42 -33 42 C-32.7628125 41.45472656 -32.525625 40.90945313 -32.28125 40.34765625 C-30.67082426 37.39684567 -28.65847894 35.01295783 -26.5 32.4375 C-24.18760361 29.67088289 -22.00082301 27.00123452 -20 24 C-19.34 24 -18.68 24 -18 24 C-17.67 23.01 -17.34 22.02 -17 21 C-15.39968656 24.20062687 -16.96826309 26.72271806 -18 30 C-19.65 30.33 -21.3 30.66 -23 31 C-22.42655063 33.86724686 -22.1385485 34.8614515 -20 37 C-20.33 37.66 -20.66 38.32 -21 39 C-19.68 39 -18.36 39 -17 39 C-17.33 38.34 -17.66 37.68 -18 37 C-17.0625 34.875 -17.0625 34.875 -16 33 C-15.01 33.66 -14.02 34.32 -13 35 C-12.67 33.02 -12.34 31.04 -12 29 C-9 28 -9 28 -6 29 C-6.36155372 24.71844274 -6.73693886 20.77456892 -8.125 16.6875 C-9.03734107 13.88530956 -9.04030297 12.70478773 -8 10 C-7.01 10 -6.02 10 -5 10 C-5.495 7.525 -5.495 7.525 -6 5 C-4.02 4.34 -2.04 3.68 0 3 C0 2.01 0 1.02 0 0 Z " fill="#E89035" transform="translate(143,396)"/>
<path d="M0 0 C0.99 0 1.98 0 3 0 C3.33 2.97 3.66 5.94 4 9 C2.68 9.33 1.36 9.66 0 10 C0.33 11.98 0.66 13.96 1 16 C-0.32 16 -1.64 16 -3 16 C-2.67 16.99 -2.34 17.98 -2 19 C-2.99 19 -3.98 19 -5 19 C-5.33 20.32 -5.66 21.64 -6 23 C-7.65 23.33 -9.3 23.66 -11 24 C-11.66 22.68 -12.32 21.36 -13 20 C-12.34 19.34 -11.68 18.68 -11 18 C-11.66 18 -12.32 18 -13 18 C-12.75 16.125 -12.75 16.125 -12 14 C-10.68352881 13.30062468 -9.34977849 12.63270867 -8 12 C-7.67 11.01 -7.34 10.02 -7 9 C-6.01 8.34 -5.02 7.68 -4 7 C-4 6.34 -4 5.68 -4 5 C-3.01 5 -2.02 5 -1 5 C-0.67 3.35 -0.34 1.7 0 0 Z M7 6 C7.33 6.66 7.66 7.32 8 8 C6.68 7.67 5.36 7.34 4 7 C4.99 6.67 5.98 6.34 7 6 Z " fill="#F18D1F" transform="translate(116,431)"/>
<path d="M0 0 C2 0.66666667 4 1.33333333 6 2 C6 2.99 6 3.98 6 5 C6.99 5 7.98 5 9 5 C9 5.66 9 6.32 9 7 C9.66 7 10.32 7 11 7 C11 6.34 11 5.68 11 5 C11.99 5 12.98 5 14 5 C14 5.66 14 6.32 14 7 C9.52941176 11 9.52941176 11 7 11 C7 11.66 7 12.32 7 13 C4.5 14.625 4.5 14.625 2 16 C2 14.02 2 12.04 2 10 C2.66 10 3.32 10 4 10 C4 8.68 4 7.36 4 6 C0.71295284 4.71514394 0.71295284 4.71514394 -3 4 C-5.11652637 5.27479815 -5.11652637 5.27479815 -7 7 C-8.99883869 7.34022786 -10.99890722 7.67329097 -13 8 C-13.71671875 8.48082031 -14.4334375 8.96164062 -15.171875 9.45703125 C-18.85999673 11.46919711 -22.17803448 11.78476833 -26.3125 12.1875 C-27.05306641 12.26935547 -27.79363281 12.35121094 -28.55664062 12.43554688 C-30.36994923 12.63442588 -32.18484969 12.81869827 -34 13 C-30.51369545 10.67579696 -27.04866963 9.77879063 -23.0625 8.6875 C-15.09376385 6.43378471 -7.42337127 3.71168563 0 0 Z " fill="#EA881F" transform="translate(290,368)"/>
<path d="M0 0 C1.60031344 3.20062687 0.03173691 5.72271806 -1 9 C-2.65 9.33 -4.3 9.66 -6 10 C-6.103125 10.639375 -6.20625 11.27875 -6.3125 11.9375 C-6.539375 12.618125 -6.76625 13.29875 -7 14 C-7.99 14.33 -8.98 14.66 -10 15 C-10.73323796 17.01508358 -10.73323796 17.01508358 -11 19 C-11.99 19 -12.98 19 -14 19 C-13.67 19.99 -13.34 20.98 -13 22 C-14.32 22.33 -15.64 22.66 -17 23 C-17.0825 23.61875 -17.165 24.2375 -17.25 24.875 C-18 27 -18 27 -20 28.0625 C-20.99 28.5265625 -20.99 28.5265625 -22 29 C-22.33 29.99 -22.66 30.98 -23 32 C-22.01 31.67 -21.02 31.34 -20 31 C-20.495 32.485 -20.495 32.485 -21 34 C-21.66 34 -22.32 34 -23 34 C-22.34 34.99 -21.68 35.98 -21 37 C-18.525 36.505 -18.525 36.505 -16 36 C-15.67 35.01 -15.34 34.02 -15 33 C-13.35 33 -11.7 33 -10 33 C-14.25018288 38.70738844 -14.25018288 38.70738844 -17.5625 40 C-20.3270394 40 -21.72276309 39.54526791 -24 38 C-25.45887389 35.08225221 -25.36823233 33.25271895 -25 30 C-23.61710425 27.42513068 -22.04499018 25.0945657 -20 23 C-19.34 23 -18.68 23 -18 23 C-18 22.34 -18 21.68 -18 21 C-17.34 21 -16.68 21 -16 21 C-15.7628125 20.45472656 -15.525625 19.90945313 -15.28125 19.34765625 C-13.67082426 16.39684567 -11.65847894 14.01295783 -9.5 11.4375 C-7.18760361 8.67088289 -5.00082301 6.00123452 -3 3 C-2.34 3 -1.68 3 -1 3 C-0.67 2.01 -0.34 1.02 0 0 Z " fill="#EA9744" transform="translate(126,417)"/>
<path d="M0 0 C0.66 1.98 1.32 3.96 2 6 C3.98 5.67 5.96 5.34 8 5 C8.33 5.66 8.66 6.32 9 7 C9.66 7 10.32 7 11 7 C11.94471655 10.07442438 12.23755654 11.49002367 10.85546875 14.45703125 C10.30503906 15.23433594 9.75460937 16.01164062 9.1875 16.8125 C8.64480469 17.60269531 8.10210937 18.39289063 7.54296875 19.20703125 C7.03378906 19.79871094 6.52460938 20.39039063 6 21 C5.34 21 4.68 21 4 21 C1.2472483 14.43252132 -1.07443364 7.85618326 -3 1 C-1 0 -1 0 0 0 Z " fill="#EC902D" transform="translate(281,172)"/>
<path d="M0 0 C3.15277249 3.42692662 3.66643139 6.4134316 4 11 C3.67 11.99 3.34 12.98 3 14 C2.34 14 1.68 14 1 14 C1.09539062 14.77085937 1.19078125 15.54171875 1.2890625 16.3359375 C1.39992188 17.33882813 1.51078125 18.34171875 1.625 19.375 C1.74101563 20.37273437 1.85703125 21.37046875 1.9765625 22.3984375 C1.98429687 23.25695312 1.99203125 24.11546875 2 25 C1.34 25.66 0.68 26.32 0 27 C-0.33 22.71 -0.66 18.42 -1 14 C-1.33 20.27 -1.66 26.54 -2 33 C-2.66 33 -3.32 33 -4 33 C-4.05794812 28.72922344 -4.09357874 24.45854764 -4.125 20.1875 C-4.14175781 18.97255859 -4.15851563 17.75761719 -4.17578125 16.50585938 C-4.18222656 15.34248047 -4.18867187 14.17910156 -4.1953125 12.98046875 C-4.20578613 11.90692139 -4.21625977 10.83337402 -4.22705078 9.72729492 C-4 7 -4 7 -2 4 C-1.34 4 -0.68 4 0 4 C0 2.68 0 1.36 0 0 Z " fill="#E58B31" transform="translate(123,244)"/>
<path d="M0 0 C2.97 0.495 2.97 0.495 6 1 C5.67 1.99 5.34 2.98 5 4 C4.34 4 3.68 4 3 4 C2.690625 4.96486328 2.690625 4.96486328 2.375 5.94921875 C0.42632991 10.27283051 -2.25908107 13.95646664 -5 17.8125 C-5.81984375 18.99489258 -5.81984375 18.99489258 -6.65625 20.20117188 C-7.1821875 20.94560547 -7.708125 21.69003906 -8.25 22.45703125 C-8.72953125 23.13741455 -9.2090625 23.81779785 -9.703125 24.51879883 C-10.13109375 25.00759521 -10.5590625 25.4963916 -11 26 C-11.66 26 -12.32 26 -13 26 C-13.70088156 24.25531628 -14.38524009 22.50398839 -15.0625 20.75 C-15.44535156 19.77546875 -15.82820312 18.8009375 -16.22265625 17.796875 C-17.01113787 14.95992605 -17.02437812 13.70590448 -16 11 C-15.67 11 -15.34 11 -15 11 C-15 12.65 -15 14.3 -15 16 C-13.02 16.66 -11.04 17.32 -9 18 C-8.67 17.34 -8.34 16.68 -8 16 C-7.34 16.33 -6.68 16.66 -6 17 C-5.67 15.02 -5.34 13.04 -5 11 C-4.01 11 -3.02 11 -2 11 C-2.3403125 9.8553125 -2.3403125 9.8553125 -2.6875 8.6875 C-2.790625 7.800625 -2.89375 6.91375 -3 6 C-1.5625 4.1875 -1.5625 4.1875 0 3 C0.66 3.33 1.32 3.66 2 4 C2 3.34 2 2.68 2 2 C1.34 2 0.68 2 0 2 C0 1.34 0 0.68 0 0 Z " fill="#E69542" transform="translate(206,304)"/>
<path d="M0 0 C0.33 0.99 0.66 1.98 1 3 C0.67 3.66 0.34 4.32 0 5 C0.99 4.67 1.98 4.34 3 4 C3.99 4.66 4.98 5.32 6 6 C5.67 5.01 5.34 4.02 5 3 C6.32 2.67 7.64 2.34 9 2 C9 2.66 9 3.32 9 4 C9.66 4 10.32 4 11 4 C9.67997942 7.57294032 8.10478612 10.63953492 6 13.8125 C5.484375 14.60269531 4.96875 15.39289063 4.4375 16.20703125 C3.963125 16.79871094 3.48875 17.39039063 3 18 C2.34 18 1.68 18 1 18 C0.32635339 15.91891315 -0.33866798 13.8350329 -1 11.75 C-1.37125 10.58984375 -1.7425 9.4296875 -2.125 8.234375 C-3 5 -3 5 -3 1 C-2.01 0.67 -1.02 0.34 0 0 Z " fill="#EE8920" transform="translate(323,114)"/>
<path d="M0 0 C1.32 0 2.64 0 4 0 C2.42686828 4.72843614 -0.20641235 8.3433843 -3.125 12.3125 C-3.59292969 12.95767578 -4.06085938 13.60285156 -4.54296875 14.26757812 C-5.6905929 15.84848894 -6.84465477 17.42472301 -8 19 C-9.859375 18.4453125 -9.859375 18.4453125 -12 17 C-13.265625 13.7421875 -13.265625 13.7421875 -14.25 9.875 C-14.42273438 9.21628906 -14.59546875 8.55757813 -14.7734375 7.87890625 C-15.19672578 6.25630118 -15.60029741 4.62857546 -16 3 C-15.34 3 -14.68 3 -14 3 C-13.67 4.98 -13.34 6.96 -13 9 C-12.21625 8.814375 -11.4325 8.62875 -10.625 8.4375 C-8 8 -8 8 -6 9 C-6 8.34 -6 7.68 -6 7 C-4.35 7 -2.7 7 -1 7 C-0.67 4.69 -0.34 2.38 0 0 Z " fill="#E68B2D" transform="translate(166,363)"/>
<path d="M0 0 C0 0.33 0 0.66 0 1 C-9.53965445 2.76310445 -18.86901137 3.19290705 -28.5625 3.1875 C-29.69220215 3.18814453 -30.8219043 3.18878906 -31.98583984 3.18945312 C-37.12393986 3.15567509 -41.93539715 2.93875647 -47 2 C-43.37057456 -0.41961696 -40.57268972 -0.36364662 -36.3671875 -0.44921875 C-35.61591583 -0.47095657 -34.86464417 -0.4926944 -34.09060669 -0.51509094 C-32.49867536 -0.55899797 -30.90660834 -0.59820014 -29.31445312 -0.63305664 C-26.90446991 -0.68684229 -24.4954111 -0.75722094 -22.0859375 -0.83007812 C-14.64901078 -1.03268206 -7.37752244 -1.13303751 0 0 Z " fill="#E2913F" transform="translate(209,423)"/>
<path d="M0 0 C1.32 0.66 2.64 1.32 4 2 C3.67 3.65 3.34 5.3 3 7 C1.02 7 -0.96 7 -3 7 C-3.0825 8.093125 -3.165 9.18625 -3.25 10.3125 C-4 14 -4 14 -6 15.75 C-6.66 16.1625 -7.32 16.575 -8 17 C-8.33 17.99 -8.66 18.98 -9 20 C-9.495 20.45375 -9.99 20.9075 -10.5 21.375 C-12.43309736 23.46918881 -12.62452796 25.22150692 -13 28 C-13.99 28.33 -14.98 28.66 -16 29 C-16.33 29.66 -16.66 30.32 -17 31 C-17.66 31 -18.32 31 -19 31 C-19.28875 31.763125 -19.5775 32.52625 -19.875 33.3125 C-21 36 -21 36 -23 39 C-23.66 38.67 -24.32 38.34 -25 38 C-24.34366577 37.01942627 -24.34366577 37.01942627 -23.67407227 36.01904297 C-11.68851783 18.10665835 -11.68851783 18.10665835 0 0 Z " fill="#E3984E" transform="translate(244,279)"/>
<path d="M0 0 C0.33 0.99 0.66 1.98 1 3 C-1 5 -1 5 -4 6 C-4.33 6.99 -4.66 7.98 -5 9 C-7.34930892 10.58737089 -9.4775116 11.83578936 -12.1875 12.6875 C-14.88146132 14.63829958 -14.94502707 17.04693848 -15.5078125 20.22265625 C-15.67023438 20.80917969 -15.83265625 21.39570313 -16 22 C-16.66 22.33 -17.32 22.66 -18 23 C-18.99 22.67 -19.98 22.34 -21 22 C-21 22.99 -21 23.98 -21 25 C-22.32 25.33 -23.64 25.66 -25 26 C-25.33 27.98 -25.66 29.96 -26 32 C-27.65 32 -29.3 32 -31 32 C-29.625 29.5 -29.625 29.5 -28 27 C-27.34 27 -26.68 27 -26 27 C-25.5978125 26.13375 -25.5978125 26.13375 -25.1875 25.25 C-23.97070811 22.94449957 -22.69666121 20.97943808 -21 19 C-20.34 19 -19.68 19 -19 19 C-19 18.34 -19 17.68 -19 17 C-18.34 17 -17.68 17 -17 17 C-17 16.34 -17 15.68 -17 15 C-16.34 15 -15.68 15 -15 15 C-15 14.34 -15 13.68 -15 13 C-13.35546875 11.37890625 -13.35546875 11.37890625 -11.1875 9.5625 C-8.17536735 7.02660668 -8.17536735 7.02660668 -5.36328125 4.27734375 C-4 3 -4 3 -2 3 C-2 2.34 -2 1.68 -2 1 C-1.34 0.67 -0.68 0.34 0 0 Z " fill="#E49747" transform="translate(190,126)"/>
<path d="M0 0 C0.495 1.485 0.495 1.485 1 3 C0.43410156 3.19335938 -0.13179688 3.38671875 -0.71484375 3.5859375 C-1.81505859 3.97652344 -1.81505859 3.97652344 -2.9375 4.375 C-3.66839844 4.63023438 -4.39929688 4.88546875 -5.15234375 5.1484375 C-7.18682116 5.85271413 -7.18682116 5.85271413 -8 8 C-10.475 7.505 -10.475 7.505 -13 7 C-13 7.66 -13 8.32 -13 9 C-13.53625 9.103125 -14.0725 9.20625 -14.625 9.3125 C-17.08911901 9.92722879 -17.08911901 9.92722879 -19.4375 11.375 C-24.73892631 13.79319446 -30.31480498 14.81066395 -36 16 C-36 15.34 -36 14.68 -36 14 C-26.57355491 10.32887043 -17.1461242 6.66119528 -7.69921875 3.04296875 C-5.12465113 2.04816476 -2.56038736 1.03068417 0 0 Z " fill="#E39144" transform="translate(340,54)"/>
<path d="M0 0 C2.31 0 4.62 0 7 0 C7.33 0.99 7.66 1.98 8 3 C10.47739354 3.90837763 12.33579484 4 15 4 C13 7 13 7 10.375 7.6875 C9.59125 7.790625 8.8075 7.89375 8 8 C8 8.66 8 9.32 8 10 C4.625 10.625 4.625 10.625 1 11 C0.34 10.34 -0.32 9.68 -1 9 C-0.34 8.67 0.32 8.34 1 8 C-0.98 8.33 -2.96 8.66 -5 9 C-5 8.34 -5 7.68 -5 7 C-4.01 6.67 -3.02 6.34 -2 6 C-1.67 5.34 -1.34 4.68 -1 4 C0.32 4 1.64 4 3 4 C3 3.34 3 2.68 3 2 C2.01 1.67 1.02 1.34 0 1 C0 0.67 0 0.34 0 0 Z " fill="#EA8821" transform="translate(321,306)"/>
<path d="M0 0 C1.32 0 2.64 0 4 0 C4 0.66 4 1.32 4 2 C3.34 2 2.68 2 2 2 C1.773125 2.55171875 1.54625 3.1034375 1.3125 3.671875 C-0.38725926 6.68692417 -2.54804816 8.81230369 -5 11.25 C-5.886875 12.14203125 -6.77375 13.0340625 -7.6875 13.953125 C-10 16 -10 16 -12 16 C-12 16.66 -12 17.32 -12 18 C-12.66 18 -13.32 18 -14 18 C-14 18.66 -14 19.32 -14 20 C-14.66 20 -15.32 20 -16 20 C-15.649375 19.0925 -15.29875 18.185 -14.9375 17.25 C-14.03531221 14.12241564 -13.86618493 12.94791919 -15 10 C-12.37886292 10 -10.49064888 10.31292445 -8 11 C-8 9.68 -8 8.36 -8 7 C-7.01 7 -6.02 7 -5 7 C-5 6.01 -5 5.02 -5 4 C-3.35 4 -1.7 4 0 4 C0 2.68 0 1.36 0 0 Z " fill="#E49A44" transform="translate(320,353)"/>
<path d="M0 0 C0.91058531 3.07322544 1.08886184 5.80097361 1 9 C-0.98 9 -2.96 9 -5 9 C-5 9.99 -5 10.98 -5 12 C-4.236875 11.835 -3.47375 11.67 -2.6875 11.5 C2.22145849 10.83437851 7.05435114 10.92079922 12 11 C8.05688666 13.52274456 3.79179211 13.66554839 -0.75 14.125 C-1.54277344 14.21136719 -2.33554688 14.29773438 -3.15234375 14.38671875 C-5.10083141 14.59800054 -7.05032976 14.79992467 -9 15 C-9 12 -9 12 -8 10 C-7.34 10 -6.68 10 -6 10 C-5.7525 9.278125 -5.505 8.55625 -5.25 7.8125 C-3.89016326 4.75286734 -2.17082246 2.5326262 0 0 Z " fill="#E79E53" transform="translate(217,320)"/>
<path d="M0 0 C3.7898719 7.27520051 8.0959362 16.68096084 8 25 C6.74254776 28.03267893 5.09485264 30.48336495 3 33 C1.76298628 29.28895884 2.57873021 28.51137242 4 25 C4.5 22.5 4.5 22.5 4 20 C3.33742187 19.28457031 2.67484375 18.56914062 1.9921875 17.83203125 C-0.53254314 14.24295338 -0.45953829 11.39841367 -0.25 7.1875 C-0.23195312 6.49462891 -0.21390625 5.80175781 -0.1953125 5.08789062 C-0.14851064 3.39132336 -0.07677624 1.69547524 0 0 Z " fill="#E19243" transform="translate(180,314)"/>
<path d="M0 0 C0 0.66 0 1.32 0 2 C-2.046875 3.40234375 -2.046875 3.40234375 -4.75 4.9375 C-7.32455716 6.40921323 -9.75329387 7.80347139 -12.07421875 9.65234375 C-14.21647228 11.15148669 -15.48345999 11.43616855 -18.0625 11.625 C-21.89928168 11.84150528 -21.89928168 11.84150528 -25 13 C-25.99 12.34 -26.98 11.68 -28 11 C-27.21238281 10.70867187 -26.42476563 10.41734375 -25.61328125 10.1171875 C-18.42443095 7.41179768 -11.50709876 4.4610861 -4.58203125 1.13671875 C-2 0 -2 0 0 0 Z " fill="#E48F38" transform="translate(356,130)"/>
<path d="M0 0 C2.13586678 3.20380017 2.23132175 4.01939967 2.125 7.6875 C2.10695313 8.49574219 2.08890625 9.30398437 2.0703125 10.13671875 C2.04710937 10.75160156 2.02390625 11.36648437 2 12 C1.67 12 1.34 12 1 12 C1 9.69 1 7.38 1 5 C-1.64 5 -4.28 5 -7 5 C-7 5.66 -7 6.32 -7 7 C-10.303314 7.88935377 -13.62294375 8.46274105 -17 9 C-16.34 8.67 -15.68 8.34 -15 8 C-15 7.34 -15 6.68 -15 6 C-10.55120716 1.53965185 -6.4840664 -1.16713195 0 0 Z " fill="#E98F32" transform="translate(384,31)"/>
<path d="M0 0 C0.33 0 0.66 0 1 0 C1.66 3.63 2.32 7.26 3 11 C4.32 11.33 5.64 11.66 7 12 C5.58603098 12.50757862 4.16868271 13.00574925 2.75 13.5 C1.96109375 13.7784375 1.1721875 14.056875 0.359375 14.34375 C-2 15 -2 15 -6 15 C-5.39644592 11.14974121 -4.23227397 8.13898841 -2.4375 4.6875 C-1.98246094 3.80449219 -1.52742188 2.92148438 -1.05859375 2.01171875 C-0.53458984 1.01591797 -0.53458984 1.01591797 0 0 Z " fill="#E8994A" transform="translate(338,120)"/>
<path d="M0 0 C0 0.33 0 0.66 0 1 C-14.88252934 4.89874771 -29.76908918 7.78317223 -45 10 C-45 9.34 -45 8.68 -45 8 C-43.865625 7.855625 -42.73125 7.71125 -41.5625 7.5625 C-38.19222799 7.38828522 -38.19222799 7.38828522 -37 6 C-34.66702567 5.95907063 -32.33294775 5.95758277 -30 6 C-29.67 5.01 -29.34 4.02 -29 3 C-27.82630859 3.01740234 -27.82630859 3.01740234 -26.62890625 3.03515625 C-25.61699219 3.04417969 -24.60507812 3.05320313 -23.5625 3.0625 C-22.04849609 3.07990234 -22.04849609 3.07990234 -20.50390625 3.09765625 C-18.05978933 3.28612676 -18.05978933 3.28612676 -17 2 C-11.28751889 0.28750566 -5.93638224 -0.21586845 0 0 Z " fill="#E0974F" transform="translate(347,249)"/>
<path d="M0 0 C-3 2 -3 2 -5 2 C-5 2.66 -5 3.32 -5 4 C-5.76183594 4.10957031 -6.52367187 4.21914062 -7.30859375 4.33203125 C-13.83677611 5.33448622 -19.79917763 6.72636513 -26 9 C-26 9.66 -26 10.32 -26 11 C-28.31 11.33 -30.62 11.66 -33 12 C-32.8125 10.125 -32.8125 10.125 -32 8 C-28.37334549 6.24897513 -24.67379485 5.40128223 -20.75 4.5625 C-16.73580314 3.67247445 -12.87370494 2.69039504 -9 1.3125 C-5.88675364 0.21168361 -3.34228001 -0.32344645 0 0 Z " fill="#E4933E" transform="translate(322,197)"/>
<path d="M0 0 C1.32 1.65 2.64 3.3 4 5 C1.63707344 7.52588702 0.33537489 8.88820837 -3 10 C-3.33 10.66 -3.66 11.32 -4 12 C-4.66 12.28875 -5.32 12.5775 -6 12.875 C-8.20005805 13.8234856 -8.20005805 13.8234856 -8.75 16.125 C-8.8325 16.74375 -8.915 17.3625 -9 18 C-10.32 18 -11.64 18 -13 18 C-13 17.34 -13 16.68 -13 16 C-12.34 16 -11.68 16 -11 16 C-10.7421875 15.44828125 -10.484375 14.8965625 -10.21875 14.328125 C-8.82036875 11.65685825 -7.21236695 9.23148091 -5.5 6.75 C-4.8915625 5.85796875 -4.283125 4.9659375 -3.65625 4.046875 C-3.1096875 3.37140625 -2.563125 2.6959375 -2 2 C-1.34 2 -0.68 2 0 2 C0 1.34 0 0.68 0 0 Z " fill="#EE9639" transform="translate(188,359)"/>
<path d="M0 0 C0.33 0 0.66 0 1 0 C1.13575439 0.58378418 1.27150879 1.16756836 1.41137695 1.76904297 C2.04184161 4.47179665 2.67714858 7.17339108 3.3125 9.875 C3.52583984 10.7928125 3.73917969 11.710625 3.95898438 12.65625 C5.25206813 18.13738115 6.7216206 23.47962309 8.53588867 28.81298828 C9.05130216 31.24174895 8.78665848 32.6708544 8 35 C6.64617318 31.67458072 5.3169078 28.34020292 4 25 C3.608125 24.01 3.21625 23.02 2.8125 22 C1.65283335 17.71815391 1.33148909 13.41403899 1 9 C0.34 9 -0.32 9 -1 9 C-1.125 2.25 -1.125 2.25 0 0 Z " fill="#E29851" transform="translate(171,278)"/>
<path d="M0 0 C1.07310858 3.27185553 0.89263102 5.42947592 0.0625 8.75 C-0.13214844 9.54921875 -0.32679687 10.3484375 -0.52734375 11.171875 C-0.68332031 11.77515625 -0.83929688 12.3784375 -1 13 C-1.66 13 -2.32 13 -3 13 C-5.45029331 18.71735105 -6.33266291 22.79029227 -6 29 C-6.33 28.34 -6.66 27.68 -7 27 C-7.66 27 -8.32 27 -9 27 C-9 27.66 -9 28.32 -9 29 C-9.66 29 -10.32 29 -11 29 C-9.21086243 18.62300208 -4.7471247 9.33837366 0 0 Z " fill="#E69A4C" transform="translate(126,207)"/>
<path d="M0 0 C0.33 0 0.66 0 1 0 C1.17015625 0.90878906 1.3403125 1.81757813 1.515625 2.75390625 C3.07315951 10.83154531 4.91371865 18.73850729 7.1328125 26.66015625 C7.93936394 29.76646922 8.52681388 32.82772163 9 36 C8.01 36.495 8.01 36.495 7 37 C5.80712589 33.12315913 5 30.08378077 5 26 C4.34 25.67 3.68 25.34 3 25 C2.40234375 22.890625 2.40234375 22.890625 1.9375 20.25 C1.78152344 19.38890625 1.62554687 18.5278125 1.46484375 17.640625 C1.31144531 16.76921875 1.15804687 15.8978125 1 15 C0.81695312 14.17628906 0.63390625 13.35257813 0.4453125 12.50390625 C-0.02781086 9.84362492 -0.09849068 7.38680083 -0.0625 4.6875 C-0.05347656 3.80449219 -0.04445312 2.92148438 -0.03515625 2.01171875 C-0.02355469 1.34785156 -0.01195312 0.68398437 0 0 Z " fill="#DF9754" transform="translate(214,194)"/>
<path d="M0 0 C1.32 0 2.64 0 4 0 C4 0.66 4 1.32 4 2 C3.34 2 2.68 2 2 2 C1.7525 2.721875 1.505 3.44375 1.25 4.1875 C-0.12269592 7.27606582 -1.72353296 9.51011418 -4 12 C-4.66 12 -5.32 12 -6 12 C-6.2475 12.556875 -6.495 13.11375 -6.75 13.6875 C-8.22924818 16.42410913 -9.93467439 18.67650869 -12 21 C-12.66 21 -13.32 21 -14 21 C-14 19.68 -14 18.36 -14 17 C-13.01 17 -12.02 17 -11 17 C-9.68004173 14.4616187 -8.62977263 12.0071175 -7.625 9.3125 C-7.08875 8.219375 -6.5525 7.12625 -6 6 C-3.9375 5.375 -3.9375 5.375 -2 5 C-0.70339566 2.50965614 -0.70339566 2.50965614 0 0 Z " fill="#E49C53" transform="translate(338,332)"/>
<path d="M0 0 C0.99 0 1.98 0 3 0 C3.33 4.62 3.66 9.24 4 14 C3.34 13.67 2.68 13.34 2 13 C1.375 10.4375 1.375 10.4375 1 8 C-0.50416548 11.00833096 0.39160263 13.34961578 0.9375 16.625 C1.13214844 17.81351563 1.32679688 19.00203125 1.52734375 20.2265625 C1.76130859 21.59941406 1.76130859 21.59941406 2 23 C-0.66711077 21.66644462 -0.97736072 20.80777275 -2 18 C-2.19134471 15.24801281 -2.2794906 12.6225406 -2.25 9.875 C-2.25773437 9.14667969 -2.26546875 8.41835937 -2.2734375 7.66796875 C-2.25342069 2.25342069 -2.25342069 2.25342069 0 0 Z M-1 2 C0 6 0 6 0 6 Z " fill="#E69D56" transform="translate(315,96)"/>
<path d="M0 0 C0.33 0 0.66 0 1 0 C1 2.64 1 5.28 1 8 C1.66 8 2.32 8 3 8 C2.95875 9.155 2.9175 10.31 2.875 11.5 C2.85182185 18.71999473 4.01904802 25.86182267 5 33 C5.99 32.505 5.99 32.505 7 32 C7 34.31 7 36.62 7 39 C5.68 38.67 4.36 38.34 3 38 C2.95101562 36.85660156 2.90203125 35.71320313 2.8515625 34.53515625 C2.77654811 33.04424527 2.70099972 31.55336108 2.625 30.0625 C2.57859375 28.93038086 2.57859375 28.93038086 2.53125 27.77539062 C2.4273685 25.84492605 2.22104386 23.92057919 2 22 C1.34 21.67 0.68 21.34 0 21 C0 14.07 0 7.14 0 0 Z " fill="#EB9A41" transform="translate(161,182)"/>
<path d="M0 0 C0.33 0.99 0.66 1.98 1 3 C-8.95135211 7.04273679 -18.21080791 10.17507183 -29 11 C-25.46600215 8.64400144 -21.91650628 7.73496975 -17.875 6.625 C-11.64358004 4.86201233 -5.83017588 2.86208634 0 0 Z " fill="#DD9346" transform="translate(285,370)"/>
<path d="M0 0 C1.09658936 3.28976808 0.79953138 4.71303767 0 8 C1.32 8.66 2.64 9.32 4 10 C1.10765685 10.82638376 -0.88742431 11 -4 11 C-4 11.99 -4 12.98 -4 14 C-5 15 -6 16 -7 17 C-7.71447643 19.10332891 -7.71447643 19.10332891 -8 21 C-8.99 21 -9.98 21 -11 21 C-9.47705313 16.93373186 -7.56965188 13.18982444 -5.5 9.375 C-4.8915625 8.24835938 -4.283125 7.12171875 -3.65625 5.9609375 C-2 3 -2 3 0 0 Z " fill="#EA9743" transform="translate(313,166)"/>
<path d="M0 0 C1.20628008 2.33214148 2.1654738 4.49642139 3 7 C2.11962891 8.80932617 2.11962891 8.80932617 0.7265625 10.79296875 C0.2315625 11.50517578 -0.2634375 12.21738281 -0.7734375 12.95117188 C-1.30195313 13.68916016 -1.83046875 14.42714844 -2.375 15.1875 C-3.15617188 16.31188477 -3.15617188 16.31188477 -3.953125 17.45898438 C-6.7501973 21.44082693 -6.7501973 21.44082693 -8 23 C-8.33 23 -8.66 23 -9 23 C-9 21.02 -9 19.04 -9 17 C-8.34 17 -7.68 17 -7 17 C-6.34 15.68 -5.68 14.36 -5 13 C-5.33 12.67 -5.66 12.34 -6 12 C-2.25 8.125 -2.25 8.125 0 7 C0 4.69 0 2.38 0 0 Z " fill="#E39749" transform="translate(233,264)"/>
<path d="M0 0 C0.66 0 1.32 0 2 0 C1.27743338 4.25421245 -0.00408378 8.18369169 -1.4375 12.25 C-1.86933594 13.49265625 -2.30117188 14.7353125 -2.74609375 16.015625 C-4 19 -4 19 -6 20 C-6.33 16.37 -6.66 12.74 -7 9 C-6.21625 8.62875 -5.4325 8.2575 -4.625 7.875 C-1.39371171 5.56693694 -0.92493788 3.78383679 0 0 Z " fill="#E69341" transform="translate(383,252)"/>
<path d="M0 0 C1.8735925 3.74718499 0.10275611 8.12256723 -1 12 C-2.10452463 14.58397965 -3.04718095 15.87979645 -5 18 C-7.75 18.375 -7.75 18.375 -10 18 C-8.70126608 14.45970129 -7.15122134 11.52988067 -5 8.4375 C-3.09937057 5.69584204 -1.42409849 3.01936265 0 0 Z " fill="#EC9438" transform="translate(271,236)"/>
<path d="M0 0 C0 3 0 3 -1 6 C-0.01 5.67 0.98 5.34 2 5 C1.67 5.99 1.34 6.98 1 8 C0.34 8 -0.32 8 -1 8 C-0.01 9.485 -0.01 9.485 1 11 C2.65 10.67 4.3 10.34 6 10 C6.33 9.01 6.66 8.02 7 7 C8.65 7 10.3 7 12 7 C7.74981712 12.70738844 7.74981712 12.70738844 4.4375 14 C1.6729606 14 0.27723691 13.54526791 -2 12 C-3.40457737 9.19084526 -3.24895157 7.11189466 -3 4 C-1.5 1.625 -1.5 1.625 0 0 Z " fill="#E0974F" transform="translate(104,443)"/>
<path d="M0 0 C2.64 0.33 5.28 0.66 8 1 C8 1.66 8 2.32 8 3 C4.70929159 3.83714909 1.41728353 4.66906896 -1.875 5.5 C-3.28072266 5.85771484 -3.28072266 5.85771484 -4.71484375 6.22265625 C-5.61074219 6.44824219 -6.50664062 6.67382812 -7.4296875 6.90625 C-8.25710449 7.11572266 -9.08452148 7.32519531 -9.93701172 7.54101562 C-12 8 -12 8 -14 8 C-13.67 7.01 -13.34 6.02 -13 5 C-8.56971812 3.34950283 -4.70949382 2.77026859 0 3 C0 2.01 0 1.02 0 0 Z " fill="#E18C3C" transform="translate(274,368)"/>
<path d="M0 0 C-1.81675537 1.81675537 -4.39305125 1.41163669 -6.83203125 1.68359375 C-9.22107269 1.9777518 -9.22107269 1.9777518 -12.3125 3 C-16.41948087 4.11375752 -20.31364626 4.46420205 -24.546875 4.75390625 C-27.13459411 4.92266843 -27.13459411 4.92266843 -30 6 C-29.67 5.01 -29.34 4.02 -29 3 C-24.91880031 2.29940894 -20.8347923 1.6168041 -16.75 0.9375 C-15.59113281 0.73833984 -14.43226563 0.53917969 -13.23828125 0.33398438 C-12.12324219 0.15029297 -11.00820312 -0.03339844 -9.859375 -0.22265625 C-8.83295898 -0.39547119 -7.80654297 -0.56828613 -6.74902344 -0.74633789 C-4.14929692 -0.98622385 -2.45153733 -0.82316264 0 0 Z " fill="#E09855" transform="translate(229,340)"/>
<path d="M0 0 C0 0.33 0 0.66 0 1 C-10.30531225 3.31761729 -20.40547474 5.57706486 -31 6 C-31 5.34 -31 4.68 -31 4 C-28.56894599 2.78447299 -26.7119695 2.75125924 -24 2.5625 C-20.18628684 2.25341475 -16.54854372 1.76000885 -12.8125 0.9375 C-8.4367289 -0.00766656 -4.46847338 -0.16549901 0 0 Z " fill="#DD8F46" transform="translate(259,376)"/>
<path d="M0 0 C0.66 0 1.32 0 2 0 C2.33188114 4.756963 1.62235719 7.06646421 -1 11 C-1.69822617 12.65369357 -2.37498605 14.31727014 -3 16 C-3.66 15.67 -4.32 15.34 -5 15 C-4.03041915 9.7642634 -3.06747424 5.46178071 0 1 C0 0.67 0 0.34 0 0 Z M-5 16 C-5.33 17.32 -5.66 18.64 -6 20 C-6.99 19.67 -7.98 19.34 -9 19 C-9.33 18.34 -9.66 17.68 -10 17 C-8 16 -8 16 -5 16 Z " fill="#ED8C24" transform="translate(130,410)"/>
<path d="M0 0 C0.99 0.495 0.99 0.495 2 1 C2 3.31 2 5.62 2 8 C2.66 8.33 3.32 8.66 4 9 C4.40729228 11.32156597 4.74438677 13.6568787 5 16 C5.66 16 6.32 16 7 16 C6.67 16.66 6.34 17.32 6 18 C5.34 17.67 4.68 17.34 4 17 C4 19.97 4 22.94 4 26 C3.67 26 3.34 26 3 26 C2.49418146 22.60500696 1.99637756 19.20888518 1.5 15.8125 C1.35691406 14.85279297 1.21382813 13.89308594 1.06640625 12.90429688 C0.93105469 11.97294922 0.79570313 11.04160156 0.65625 10.08203125 C0.53056641 9.22843018 0.40488281 8.3748291 0.27539062 7.49536133 C-0.00272556 4.97530325 -0.047608 2.53314218 0 0 Z " fill="#E59440" transform="translate(105,324)"/>
<path d="M0 0 C1.66666667 0 3.33333333 0 5 0 C5 1.65 5 3.3 5 5 C4.34 5 3.68 5 3 5 C3.144375 5.64066406 3.28875 6.28132813 3.4375 6.94140625 C4.54035491 12.08040377 5.22839311 16.74695843 5 22 C4.67 22 4.34 22 4 22 C3.1321772 18.89948553 2.28313233 15.79413335 1.4375 12.6875 C1.19064453 11.80642578 0.94378906 10.92535156 0.68945312 10.01757812 C0.46064453 9.17001953 0.23183594 8.32246094 -0.00390625 7.44921875 C-0.21861572 6.66893311 -0.4333252 5.88864746 -0.65454102 5.0847168 C-1 3 -1 3 0 0 Z " fill="#E6923C" transform="translate(178,275)"/>
<path d="M0 0 C0 0.99 0 1.98 0 3 C-0.639375 3.103125 -1.27875 3.20625 -1.9375 3.3125 C-2.618125 3.539375 -3.29875 3.76625 -4 4 C-4.33 4.99 -4.66 5.98 -5 7 C-5.66 6.67 -6.32 6.34 -7 6 C-7 5.67 -7 5.34 -7 5 C-8.85625 5.5259375 -8.85625 5.5259375 -10.75 6.0625 C-14.25405292 7.05531499 -15.20460255 6.94884936 -19 6 C-14.05 4.515 -14.05 4.515 -9 3 C-10.98 3 -12.96 3 -15 3 C-13 1 -13 1 -10.90625 0.83984375 C-9.71515625 0.88818359 -9.71515625 0.88818359 -8.5 0.9375 C-5.31244828 1.05651573 -3.00141962 0 0 0 Z " fill="#E49245" transform="translate(362,246)"/>
<path d="M0 0 C0.66 0 1.32 0 2 0 C3.125 3.75 3.125 3.75 2 6 C1.34 6 0.68 6 0 6 C-0.33 7.32 -0.66 8.64 -1 10 C-1.99 10 -2.98 10 -4 10 C-4.103125 10.556875 -4.20625 11.11375 -4.3125 11.6875 C-5.13133577 14.44176578 -6.45853781 16.58727657 -8 19 C-8.66 18.67 -9.32 18.34 -10 18 C-6.72591106 11.96476272 -3.43506486 5.94530457 0 0 Z " fill="#E59C57" transform="translate(287,209)"/>
<path d="M0 0 C1.49080078 0.02707031 1.49080078 0.02707031 3.01171875 0.0546875 C3.77097656 0.07789063 4.53023437 0.10109375 5.3125 0.125 C5.3125 0.455 5.3125 0.785 5.3125 1.125 C11.2525 1.455 17.1925 1.785 23.3125 2.125 C23.3125 2.455 23.3125 2.785 23.3125 3.125 C19.10418132 3.15414348 14.89588878 3.17184712 10.6875 3.1875 C8.90279297 3.20006836 8.90279297 3.20006836 7.08203125 3.21289062 C5.92832031 3.21611328 4.77460938 3.21933594 3.5859375 3.22265625 C1.99918213 3.23051147 1.99918213 3.23051147 0.38037109 3.23852539 C-2.72112346 3.12375578 -5.64097657 2.70196282 -8.6875 2.125 C-5.26655758 -0.15562828 -4.00562778 -0.09425007 0 0 Z " fill="#E9AE68" transform="translate(170.6875,422.875)"/>
<path d="M0 0 C5.61 0 11.22 0 17 0 C17 0.33 17 0.66 17 1 C13.42010978 1.86905722 9.83566807 2.71762696 6.25 3.5625 C4.72632813 3.9327832 4.72632813 3.9327832 3.171875 4.31054688 C2.1921875 4.53935547 1.2125 4.76816406 0.203125 5.00390625 C-0.69760742 5.21861572 -1.59833984 5.4333252 -2.52636719 5.65454102 C-5.04298464 6.00600309 -6.61250145 5.80151737 -9 5 C-6.23776722 2.23776722 -3.79293383 2.42143709 0 2 C0 1.34 0 0.68 0 0 Z " fill="#E59542" transform="translate(321,188)"/>
<path d="M0 0 C2.64 0 5.28 0 8 0 C8 0.99 8 1.98 8 3 C7.40703125 3.09152344 6.8140625 3.18304688 6.203125 3.27734375 C3.47465343 4.17232113 2.52874959 5.33906301 0.75 7.5625 C0.22921875 8.20316406 -0.2915625 8.84382813 -0.828125 9.50390625 C-1.21484375 9.99761719 -1.6015625 10.49132812 -2 11 C-3.32 10.34 -4.64 9.68 -6 9 C-5.67 8.01 -5.34 7.02 -5 6 C-3.35 6.33 -1.7 6.66 0 7 C0 4.69 0 2.38 0 0 Z " fill="#E79543" transform="translate(137,418)"/>
<path d="M0 0 C1.96301592 3.50538557 2.95902388 7.13351728 4 11 C4.226875 10.38125 4.45375 9.7625 4.6875 9.125 C6.37929835 6.38589791 7.99244161 5.94975528 11 5 C9.54955729 9.10958767 7.48889248 12.43258745 5 16 C2.09974906 14.54987453 1.91293145 12.68687091 0.8125 9.6875 C0.44769531 8.72199219 0.08289063 7.75648438 -0.29296875 6.76171875 C-1.008904 3.9652203 -0.99249531 2.66140462 0 0 Z " fill="#DF9C54" transform="translate(237,246)"/>
<path d="M0 0 C-3.4352048 2.29013653 -4.985331 2.17842973 -9 2 C-9 2.66 -9 3.32 -9 4 C-14.47574739 6.9334361 -17.80040487 7.07300685 -24 6 C-21.20302746 4.13535164 -19.97247336 3.64975169 -16.8125 3.0625 C-13.60147761 2.41401991 -10.71552876 1.56000249 -7.6875 0.3125 C-4.04342203 -0.9845447 -3.40174449 -1.11889609 0 0 Z " fill="#E19341" transform="translate(346,191)"/>
<path d="M0 0 C0.66 0 1.32 0 2 0 C2.33 2.64 2.66 5.28 3 8 C3.66 8 4.32 8 5 8 C5.38218767 9.65614657 5.71395102 11.32457024 6 13 C5.67 13.33 5.34 13.66 5 14 C4.92851801 15.35243917 4.91600546 16.70834367 4.9375 18.0625 C4.958125 19.361875 4.97875 20.66125 5 22 C2.97469721 18.47773428 2.20547112 14.95941784 1.375 11 C1.11460937 9.783125 0.85421875 8.56625 0.5859375 7.3125 C0 4 0 4 0 0 Z " fill="#E19341" transform="translate(209,152)"/>
<path d="M0 0 C0.33 0.99 0.66 1.98 1 3 C-1 5 -1 5 -3.0625 5.5 C-3.701875 5.665 -4.34125 5.83 -5 6 C-5.33 6.66 -5.66 7.32 -6 8 C-5.01 8.33 -4.02 8.66 -3 9 C-6.96 9.66 -10.92 10.32 -15 11 C-14.01 10.01 -13.02 9.02 -12 8 C-11.34 8 -10.68 8 -10 8 C-10 7.34 -10 6.68 -10 6 C-7.8125 4.4921875 -7.8125 4.4921875 -5 2.875 C-4.071875 2.33617188 -3.14375 1.79734375 -2.1875 1.2421875 C-1.465625 0.83226563 -0.74375 0.42234375 0 0 Z " fill="#E79949" transform="translate(213,109)"/>
<path d="M0 0 C1 3 1 3 -0.1875 6.5 C-1.89697893 9.80106277 -2.77573124 11.28710722 -6 13 C-6.99 13 -7.98 13 -9 13 C-8.34 11.35 -7.68 9.7 -7 8 C-6.34 8 -5.68 8 -5 8 C-4.731875 7.4225 -4.46375 6.845 -4.1875 6.25 C-2.98280141 3.9674132 -1.59201885 2.0262058 0 0 Z " fill="#E69748" transform="translate(158,158)"/>
<path d="M0 0 C-1.43125601 3.91448518 -3.27511292 7.29133338 -5.5 10.8125 C-6.1084375 11.78832031 -6.716875 12.76414062 -7.34375 13.76953125 C-7.8903125 14.50558594 -8.436875 15.24164063 -9 16 C-9.66 16 -10.32 16 -11 16 C-10.6875 13.125 -10.6875 13.125 -10 10 C-9.01 9.34 -8.02 8.68 -7 8 C-6.67 7.01 -6.34 6.02 -6 5 C-4.87312259 1.61936778 -3.78825335 0 0 0 Z " fill="#E19A4C" transform="translate(353,89)"/>
<path d="M0 0 C-0.33 0.66 -0.66 1.32 -1 2 C-4.96456727 3.31886235 -9.10898535 3.33935345 -13.25 3.5625 C-14.36761719 3.62727539 -14.36761719 3.62727539 -15.5078125 3.69335938 C-17.338349 3.79896725 -19.16915176 3.89994201 -21 4 C-20.67 3.34 -20.34 2.68 -20 2 C-17.19578251 1.32993961 -14.46301309 0.78318354 -11.625 0.3125 C-10.84382812 0.17005859 -10.06265625 0.02761719 -9.2578125 -0.11914062 C-3.38787673 -1.12929224 -3.38787673 -1.12929224 0 0 Z " fill="#E59143" transform="translate(266,274)"/>
<path d="M0 0 C0.33 1.32 0.66 2.64 1 4 C1.99 4 2.98 4 4 4 C3.34 5.98 2.68 7.96 2 10 C0.02 10 -1.96 10 -4 10 C-4.33 9.34 -4.66 8.68 -5 8 C-4.00390625 6.0546875 -4.00390625 6.0546875 -2.5625 3.875 C-2.08941406 3.15054687 -1.61632812 2.42609375 -1.12890625 1.6796875 C-0.75636719 1.12539062 -0.38382812 0.57109375 0 0 Z " fill="#F38F22" transform="translate(260,254)"/>
<path d="M0 0 C-0.33 0.99 -0.66 1.98 -1 3 C-8.26 2.67 -15.52 2.34 -23 2 C-23 1.67 -23 1.34 -23 1 C-15.06303572 -0.36610623 -7.97410877 -1.37484634 0 0 Z " fill="#DE923F" transform="translate(191,393)"/>
<path d="M0 0 C0.6875 1.6875 0.6875 1.6875 1 4 C-0.4375 6.625 -0.4375 6.625 -2 9 C-2 9.66 -2 10.32 -2 11 C-2.61875 11.2475 -3.2375 11.495 -3.875 11.75 C-6.35068687 13.20628639 -6.95125002 14.37812506 -8 17 C-8.66 17 -9.32 17 -10 17 C-8.57394582 13.07297642 -6.70550338 9.75380481 -4.4375 6.25 C-3.81746094 5.28578125 -3.19742188 4.3215625 -2.55859375 3.328125 C-1 1 -1 1 0 0 Z " fill="#E6994E" transform="translate(144,177)"/>
<path d="M0 0 C0.66 0 1.32 0 2 0 C1.36567062 3.16451962 0.26817072 5.51687779 -1.4375 8.25 C-1.86933594 8.95640625 -2.30117188 9.6628125 -2.74609375 10.390625 C-3.15988281 10.92171875 -3.57367188 11.4528125 -4 12 C-4.66 12 -5.32 12 -6 12 C-7.42944945 9.64561267 -8.08661261 8.51967567 -7.625 5.75 C-7.41875 5.1725 -7.2125 4.595 -7 4 C-6.67 4.66 -6.34 5.32 -6 6 C-5.34 5.34 -4.68 4.68 -4 4 C-3.01 4.33 -2.02 4.66 -1 5 C-0.67 3.35 -0.34 1.7 0 0 Z " fill="#E39A58" transform="translate(291,181)"/>
<path d="M0 0 C0.33 0 0.66 0 1 0 C1.82468521 7.31526327 0.72885981 11.47388665 -3.6875 17.3828125 C-4.3371875 18.18332031 -4.3371875 18.18332031 -5 19 C-5.75929472 16.01386614 -6.4118332 13.02485781 -7 10 C-4.525 10.495 -4.525 10.495 -2 11 C-2 10.01 -2 9.02 -2 8 C-1.34 8 -0.68 8 0 8 C0 5.36 0 2.72 0 0 Z " fill="#E7923E" transform="translate(319,132)"/>
<path d="M0 0 C-0.625 1.9375 -0.625 1.9375 -2 4 C-4.875 4.6875 -4.875 4.6875 -8 5 C-8.70125 5.20625 -9.4025 5.4125 -10.125 5.625 C-12.3736009 6.07472018 -13.8147176 5.60752664 -16 5 C-13.90163996 3.96728358 -11.79609109 2.94916283 -9.6875 1.9375 C-8.51574219 1.36902344 -7.34398437 0.80054687 -6.13671875 0.21484375 C-3 -1 -3 -1 0 0 Z " fill="#E99442" transform="translate(257,88)"/>
<path d="M0 0 C2.05137315 3.48216283 2.56818592 6.77275657 3.125 10.75 C3.29257812 11.92046875 3.46015625 13.0909375 3.6328125 14.296875 C3.75398438 15.18890625 3.87515625 16.0809375 4 17 C3.34 17 2.68 17 2 17 C1.67 16.34 1.34 15.68 1 15 C0.34 15.66 -0.32 16.32 -1 17 C-2 14 -2 14 -1 11 C-0.34 11 0.32 11 1 11 C0.649375 10.484375 0.29875 9.96875 -0.0625 9.4375 C-1.3615641 6.05993333 -0.67217681 3.49531943 0 0 Z " fill="#E38F3F" transform="translate(266,146)"/>
<path d="M0 0 C1.0326802 2.78823655 1.04509293 3.8677274 0.0625 6.75 C-0.288125 7.4925 -0.63875 8.235 -1 9 C-1.66 9 -2.32 9 -3 9 C-3.103125 9.928125 -3.20625 10.85625 -3.3125 11.8125 C-4.00531495 15.02464205 -4.3879169 16.11930017 -7 18 C-7.66 18 -8.32 18 -9 18 C-8.690625 17.236875 -8.38125 16.47375 -8.0625 15.6875 C-7.32106407 13.81210323 -6.63771783 11.91315348 -6 10 C-5.34 10 -4.68 10 -4 10 C-3.8453125 8.9171875 -3.8453125 8.9171875 -3.6875 7.8125 C-2.94013068 4.75508007 -1.71954811 2.61670365 0 0 Z " fill="#E49C51" transform="translate(323,148)"/>
<path d="M0 0 C3 1 3 1 3.94921875 2.671875 C5.33170943 6.56333025 6.39357798 9.80183483 6 14 C5.01 14.495 5.01 14.495 4 15 C3.67 13.02 3.34 11.04 3 9 C2.34 9.66 1.68 10.32 1 11 C0.67 7.37 0.34 3.74 0 0 Z " fill="#DD7E23" transform="translate(259,108)"/>
<path d="M0 0 C8 1 8 1 16 2 C16 2.33 16 2.66 16 3 C4.47835991 5.29612756 4.47835991 5.29612756 -1 5 C-0.67 3.35 -0.34 1.7 0 0 Z " fill="#E7943E" transform="translate(286,257)"/>
<path d="M0 0 C2 2 2 2 2 6 C1.01 6.495 1.01 6.495 0 7 C-0.33 7.99 -0.66 8.98 -1 10 C-3.97 9.505 -3.97 9.505 -7 9 C-6.34 8.67 -5.68 8.34 -5 8 C-4.31513275 6.67592331 -3.65129797 5.34090759 -3 4 C-2.02418241 2.64886795 -1.02970259 1.31053056 0 0 Z " fill="#EB993E" transform="translate(156,398)"/>
<path d="M0 0 C2.35953094 2.35953094 2.49141413 3.77895617 3 7 C3.66 7 4.32 7 5 7 C5.12375 8.134375 5.2475 9.26875 5.375 10.4375 C5.684375 12.2009375 5.684375 12.2009375 6 14 C6.66 14.33 7.32 14.66 8 15 C6.68 15.99 5.36 16.98 4 18 C3.32678716 15.75194998 2.66165877 13.50147776 2 11.25 C1.62875 9.99703125 1.2575 8.7440625 0.875 7.453125 C0 4 0 4 0 0 Z " fill="#E59144" transform="translate(133,313)"/>
<path d="M0 0 C0 0.66 0 1.32 0 2 C-0.66 2 -1.32 2 -2 2 C-2 2.66 -2 3.32 -2 4 C-3.65 4.33 -5.3 4.66 -7 5 C-7 5.66 -7 6.32 -7 7 C-9.64 6.34 -12.28 5.68 -15 5 C-12.37575342 3.25050228 -10.44272784 2.34610019 -7.5 1.375 C-6.7265625 1.11460937 -5.953125 0.85421875 -5.15625 0.5859375 C-3 0 -3 0 0 0 Z " fill="#E7944A" transform="translate(343,253)"/>
<path d="M0 0 C0.88935377 3.303314 1.46274105 6.62294375 2 10 C-0.64 10.33 -3.28 10.66 -6 11 C-4.18690997 7.22272911 -2.0926741 3.62730178 0 0 Z " fill="#E79E5B" transform="translate(301,187)"/>
<path d="M0 0 C0.33 1.32 0.66 2.64 1 4 C-2.64737336 5.60913531 -6.0154074 6.65351369 -10 7 C-10.99 6.34 -11.98 5.68 -13 5 C-8.71 3.35 -4.42 1.7 0 0 Z " fill="#E59543" transform="translate(341,136)"/>
<path d="M0 0 C0 0.99 0 1.98 0 3 C5.61 3.33 11.22 3.66 17 4 C17 4.33 17 4.66 17 5 C10.30386804 5.797837 3.74233419 6.12910853 -3 6 C-2.42655063 3.13275314 -2.1385485 2.1385485 0 0 Z " fill="#DD9E63" transform="translate(171,381)"/>
<path d="M0 0 C0.99 0.495 0.99 0.495 2 1 C2.33 1.99 2.66 2.98 3 4 C3.66 4.33 4.32 4.66 5 5 C4.67 4.01 4.34 3.02 4 2 C5.65 2 7.3 2 9 2 C8.21718695 3.33855056 7.42348123 4.67073644 6.625 6 C6.18414062 6.7425 5.74328125 7.485 5.2890625 8.25 C4.86367188 8.8275 4.43828125 9.405 4 10 C3.34 10 2.68 10 2 10 C0.68373308 6.38026598 0 3.90432869 0 0 Z " fill="#E3A264" transform="translate(322,122)"/>
<path d="M0 0 C0.66 0.33 1.32 0.66 2 1 C1.9375 2.8125 1.9375 2.8125 1 5 C-4.77077364 8.15759312 -4.77077364 8.15759312 -8.4375 7.6875 C-8.953125 7.460625 -9.46875 7.23375 -10 7 C-6.76478258 4.51137122 -3.40739705 2.24578442 0 0 Z " fill="#E68F3A" transform="translate(364,41)"/>
<path d="M0 0 C-6.4520637 3.37703759 -12.87359127 3.12675431 -20 3 C-19.67 2.34 -19.34 1.68 -19 1 C-12.67859027 -0.17063143 -6.41157971 -0.10607393 0 0 Z " fill="#DF8C3F" transform="translate(229,331)"/>
<path d="M0 0 C0.33 0.66 0.66 1.32 1 2 C1.66 2 2.32 2 3 2 C4.28571429 10.42857143 4.28571429 10.42857143 3 15 C2.67 15 2.34 15 2 15 C1.67 13.35 1.34 11.7 1 10 C0.67 10 0.34 10 0 10 C-0.19412181 8.52168779 -0.38012131 7.04230684 -0.5625 5.5625 C-0.66691406 4.73878906 -0.77132812 3.91507813 -0.87890625 3.06640625 C-0.91886719 2.38449219 -0.95882812 1.70257813 -1 1 C-0.67 0.67 -0.34 0.34 0 0 Z " fill="#F09439" transform="translate(205,139)"/>
<path d="M0 0 C0 0.99 0 1.98 0 3 C-3.3111013 4.10370043 -5.24748949 3.92673641 -8.6875 3.5625 C-9.68136719 3.46066406 -10.67523438 3.35882813 -11.69921875 3.25390625 C-12.45847656 3.17011719 -13.21773437 3.08632813 -14 3 C-14 2.34 -14 1.68 -14 1 C-9.27685687 0.22887459 -4.78478822 -0.09764874 0 0 Z " fill="#E28F35" transform="translate(238,386)"/>
<path d="M0 0 C0.66 0 1.32 0 2 0 C1.33989524 2.84550012 0.48275034 5.52325999 -0.5625 8.25 C-0.83191406 8.95640625 -1.10132813 9.6628125 -1.37890625 10.390625 C-1.58386719 10.92171875 -1.78882813 11.4528125 -2 12 C-2.33 12 -2.66 12 -3 12 C-2.9071875 10.6078125 -2.9071875 10.6078125 -2.8125 9.1875 C-2.69105736 6.01604897 -2.69105736 6.01604897 -4.5 4.125 C-4.995 3.75375 -5.49 3.3825 -6 3 C-5.67 2.34 -5.34 1.68 -5 1 C-4.01 1 -3.02 1 -2 1 C-2 1.66 -2 2.32 -2 3 C-1.34 3 -0.68 3 0 3 C0 2.01 0 1.02 0 0 Z " fill="#E59039" transform="translate(375,272)"/>
<path d="M0 0 C0.66 0 1.32 0 2 0 C2.05402274 2.10388569 2.09280256 4.20816714 2.125 6.3125 C2.14820313 7.48425781 2.17140625 8.65601563 2.1953125 9.86328125 C2 13 2 13 0 16 C-0.16894443 14.25021843 -0.33506309 12.50016388 -0.5 10.75 C-0.5928125 9.77546875 -0.685625 8.8009375 -0.78125 7.796875 C-0.95800168 5.53697847 -1 3.26679807 -1 1 C-0.67 0.67 -0.34 0.34 0 0 Z " fill="#E48223" transform="translate(383,40)"/>
<path d="M0 0 C0.99 0 1.98 0 3 0 C3 0.66 3 1.32 3 2 C2.01 2 1.02 2 0 2 C0.33 2.99 0.66 3.98 1 5 C-0.32 5.33 -1.64 5.66 -3 6 C-3.103125 6.639375 -3.20625 7.27875 -3.3125 7.9375 C-3.539375 8.618125 -3.76625 9.29875 -4 10 C-4.99 10.33 -5.98 10.66 -7 11 C-6.67 9.35 -6.34 7.7 -6 6 C-5.34 6 -4.68 6 -4 6 C-4 5.34 -4 4.68 -4 4 C-3.34 4 -2.68 4 -2 4 C-1.34 2.68 -0.68 1.36 0 0 Z " fill="#E29038" transform="translate(112,434)"/>
<path d="M0 0 C0.66 0 1.32 0 2 0 C2.33 0.66 2.66 1.32 3 2 C3.66 1.34 4.32 0.68 5 0 C4.67 4.29 4.34 8.58 4 13 C0.90576832 9.90576832 0.06293995 6.4476188 -0.125 2.125 C-0.08375 1.42375 -0.0425 0.7225 0 0 Z " fill="#E49A4B" transform="translate(113,366)"/>
<path d="M0 0 C2 3 2 3 1.57421875 5.234375 C1.28160156 6.06453125 0.98898438 6.8946875 0.6875 7.75 C-0.68053953 11.87833168 -1.53081215 15.6834718 -2 20 C-2.66 19.67 -3.32 19.34 -4 19 C-3.37968409 12.42465139 -1.85102717 6.33307408 0 0 Z " fill="#E49D59" transform="translate(113,239)"/>
<path d="M0 0 C0.66 0 1.32 0 2 0 C0.60695059 7.40774509 -1.11899623 14.70170537 -3 22 C-3.94314127 18.58389775 -4.08065117 15.54865136 -4 12 C-3.34 12 -2.68 12 -2 12 C-2.04125 11.319375 -2.0825 10.63875 -2.125 9.9375 C-1.97450035 6.40075832 -1.05624147 3.36676967 0 0 Z " fill="#DF8D3F" transform="translate(391,224)"/>
<path d="M0 0 C1.98 0 3.96 0 6 0 C6.41176754 3.60296594 6.1535853 4.78402067 4 7.8125 C3.34 8.534375 2.68 9.25625 2 10 C0.68373308 6.38026598 0 3.90432869 0 0 Z " fill="#EB9438" transform="translate(274,158)"/>
<path d="M0 0 C1.90747183 2.86120775 3.00353706 5.35254993 4.1875 8.5625 C4.55230469 9.53316406 4.91710937 10.50382812 5.29296875 11.50390625 C6 14 6 14 5 16 C2 14 2 14 1.3046875 11.9765625 C1.16289062 11.20054687 1.02109375 10.42453125 0.875 9.625 C0.65457031 8.46871094 0.65457031 8.46871094 0.4296875 7.2890625 C0.28789062 6.53367187 0.14609375 5.77828125 0 5 C-0.20367187 4.26523437 -0.40734375 3.53046875 -0.6171875 2.7734375 C-0.74351562 2.18820312 -0.86984375 1.60296875 -1 1 C-0.67 0.67 -0.34 0.34 0 0 Z " fill="#E39350" transform="translate(138,357)"/>
<path d="M0 0 C-0.33 1.65 -0.66 3.3 -1 5 C-1.66 5 -2.32 5 -3 5 C-3 4.34 -3 3.68 -3 3 C-5.31 3.66 -7.62 4.32 -10 5 C-10.99 4.01 -11.98 3.02 -13 2 C-11.58461283 1.66127487 -10.16762037 1.32925376 -8.75 1 C-7.56664062 0.7215625 -7.56664062 0.7215625 -6.359375 0.4375 C-4 0 -4 0 0 0 Z " fill="#E89236" transform="translate(306,264)"/>
<path d="M0 0 C1.2421875 1.578125 1.2421875 1.578125 2 4 C0.81301179 6.46941266 -0.35228523 8.50781483 -1.875 10.75 C-2.26558594 11.35199219 -2.65617187 11.95398438 -3.05859375 12.57421875 C-4.02479188 14.05886465 -5.01057788 15.53072939 -6 17 C-7.10823705 13.23677779 -6.85362237 11.53070928 -5 8 C-3.66666667 6.66666667 -2.33333333 5.33333333 -1 4 C-0.2127322 1.8618034 -0.2127322 1.8618034 0 0 Z " fill="#E19D5A" transform="translate(279,197)"/>
<path d="M0 0 C-3 2 -3 2 -5 2 C-5 2.66 -5 3.32 -5 4 C-9.76307437 4.95261487 -14.1666528 5.08333357 -19 5 C-19 4.67 -19 4.34 -19 4 C-16.77332235 3.32506659 -14.54354023 2.66036956 -12.3125 2 C-10.45044922 1.443125 -10.45044922 1.443125 -8.55078125 0.875 C-5.4989981 0.12296543 -3.11101638 -0.19034899 0 0 Z " fill="#E09D5C" transform="translate(322,197)"/>
<path d="M0 0 C1.60031344 3.20062687 0.03173691 5.72271806 -1 9 C-1.66 8.67 -2.32 8.34 -3 8 C-3.99 9.485 -3.99 9.485 -5 11 C-5.66 11 -6.32 11 -7 11 C-7 11.66 -7 12.32 -7 13 C-7.66 12.67 -8.32 12.34 -9 12 C-8.67 11.34 -8.34 10.68 -8 10 C-7.34 10 -6.68 10 -6 10 C-5.7525 9.278125 -5.505 8.55625 -5.25 7.8125 C-3.89016326 4.75286734 -2.17082246 2.5326262 0 0 Z " fill="#E3984E" transform="translate(198,346)"/>
<path d="M0 0 C0.66 0 1.32 0 2 0 C2.47970123 1.74985354 2.95873924 3.49988891 3.4375 5.25 C3.83775391 6.71179688 3.83775391 6.71179688 4.24609375 8.203125 C4.85544584 10.46372653 5.44238255 12.72622009 6 15 C5.01 15.495 5.01 15.495 4 16 C3.32320342 14.274773 2.65898 12.54461061 2 10.8125 C1.443125 9.36810547 1.443125 9.36810547 0.875 7.89453125 C0.02363228 5.07817642 -0.17072647 2.91835561 0 0 Z " fill="#E0933C" transform="translate(141,339)"/>
<path d="M0 0 C-2.87343437 1.91562291 -3.77503541 2.29210899 -7.01171875 2.6328125 C-7.76904297 2.71660156 -8.52636719 2.80039062 -9.30664062 2.88671875 C-10.09232422 2.96535156 -10.87800781 3.04398437 -11.6875 3.125 C-12.48478516 3.21136719 -13.28207031 3.29773438 -14.10351562 3.38671875 C-16.06823326 3.59848472 -18.03402796 3.80021473 -20 4 C-15.08180512 -0.91819488 -6.5038289 -0.20647076 0 0 Z " fill="#E09953" transform="translate(254,327)"/>
<path d="M0 0 C-0.66 0 -1.32 0 -2 0 C-2 0.66 -2 1.32 -2 2 C-1.34 2.33 -0.68 2.66 0 3 C-5.4185766 3.22577402 -9.77487721 2.46670113 -15 1 C-15 0.67 -15 0.34 -15 0 C-13.06325815 -0.19517554 -11.12555991 -0.38087873 -9.1875 -0.5625 C-8.10855469 -0.66691406 -7.02960938 -0.77132813 -5.91796875 -0.87890625 C-3 -1 -3 -1 0 0 Z " fill="#E79847" transform="translate(160,421)"/>
<path d="M0 0 C0.66 0.33 1.32 0.66 2 1 C2 3.31 2 5.62 2 8 C0.02 8 -1.96 8 -4 8 C-1.125 1.125 -1.125 1.125 0 0 Z " fill="#EF9232" transform="translate(174,377)"/>
<path d="M0 0 C2.27474277 3.41211416 2.56629644 5.6568529 3.125 9.6875 C3.29257812 10.86699219 3.46015625 12.04648438 3.6328125 13.26171875 C3.75398438 14.16535156 3.87515625 15.06898437 4 16 C1.39409715 14.69704858 1.03809045 13.7008725 0 11 C-0.1953125 8.203125 -0.1953125 8.203125 -0.125 5.25 C-0.09792969 3.77273437 -0.09792969 3.77273437 -0.0703125 2.265625 C-0.04710937 1.51796875 -0.02390625 0.7703125 0 0 Z " fill="#E18F44" transform="translate(313,103)"/>
<path d="M0 0 C1.32 0 2.64 0 4 0 C4 0.66 4 1.32 4 2 C3.34 2 2.68 2 2 2 C1.7525 2.598125 1.505 3.19625 1.25 3.8125 C-0.16370012 6.28647521 -1.65055383 7.43370255 -4 9 C-4.33 7.35 -4.66 5.7 -5 4 C-3.35 4 -1.7 4 0 4 C0 2.68 0 1.36 0 0 Z " fill="#E69F51" transform="translate(320,353)"/>
<path d="M0 0 C-0.33 0.99 -0.66 1.98 -1 3 C-5.95 3 -10.9 3 -16 3 C-16 2.67 -16 2.34 -16 2 C-14.27192682 1.66104344 -12.54248026 1.32908475 -10.8125 1 C-9.84957031 0.814375 -8.88664063 0.62875 -7.89453125 0.4375 C-5.2065794 0.03122388 -2.71228981 -0.07933572 0 0 Z " fill="#E59C52" transform="translate(246,336)"/>
<path d="M0 0 C0.66 0 1.32 0 2 0 C3.59162079 5.57067277 4.20674944 10.21101581 4 16 C1.11388804 11.0523795 0 5.66834163 0 0 Z " fill="#E2944D" transform="translate(173,259)"/>
<path d="M0 0 C0.66 0 1.32 0 2 0 C2.99 4.62 3.98 9.24 5 14 C4.01 14.495 4.01 14.495 3 15 C1.80712589 11.12315913 1 8.08378077 1 4 C0.34 3.67 -0.32 3.34 -1 3 C-0.67 2.01 -0.34 1.02 0 0 Z " fill="#DD9145" transform="translate(218,216)"/>
<path d="M0 0 C0 0.66 0 1.32 0 2 C-5.48675196 3.86783046 -10.22192976 4.2358396 -16 4 C-13.36518239 2.60025314 -10.89629292 1.58775959 -8 0.875 C-7.34 0.70742188 -6.68 0.53984375 -6 0.3671875 C-4 0 -4 0 0 0 Z " fill="#E09446" transform="translate(256,381)"/>
<path d="M0 0 C0 0.66 0 1.32 0 2 C-0.99 2 -1.98 2 -3 2 C-3.33 2.66 -3.66 3.32 -4 4 C-4 3.34 -4 2.68 -4 2 C-4.99 2.33 -5.98 2.66 -7 3 C-8.39439664 3.06665376 -9.79169875 3.08538199 -11.1875 3.0625 C-13.0746875 3.0315625 -13.0746875 3.0315625 -15 3 C-15 2.67 -15 2.34 -15 2 C-13.06524329 1.46906676 -11.12706845 0.95057683 -9.1875 0.4375 C-8.10855469 0.14746094 -7.02960938 -0.14257812 -5.91796875 -0.44140625 C-3 -1 -3 -1 0 0 Z " fill="#E4994E" transform="translate(292,326)"/>
<path d="M0 0 C0.66 0 1.32 0 2 0 C2.33 0.66 2.66 1.32 3 2 C4.32 1.67 5.64 1.34 7 1 C6.38722388 3.96175123 5.74627478 5.38058783 4 8 C3.34 8 2.68 8 2 8 C1.34 5.36 0.68 2.72 0 0 Z " fill="#E09C57" transform="translate(191,322)"/>
<path d="M0 0 C0.66 0.33 1.32 0.66 2 1 C2 1.66 2 2.32 2 3 C2.99 3.33 3.98 3.66 5 4 C-0.22512279 5.46670113 -4.5814234 6.22577402 -10 6 C-10 5.34 -10 4.68 -10 4 C-6.97265625 3.75585938 -6.97265625 3.75585938 -3.9453125 3.51171875 C-1.60480784 3.12606964 -1.60480784 3.12606964 0 0 Z " fill="#DE8C38" transform="translate(358,179)"/>
<path d="M0 0 C0.33 0.66 0.66 1.32 1 2 C1.66 2.33 2.32 2.66 3 3 C1.02 6.63 -0.96 10.26 -3 14 C-3.33 14 -3.66 14 -4 14 C-4 12.02 -4 10.04 -4 8 C-3.34 8 -2.68 8 -2 8 C-1.34 5.36 -0.68 2.72 0 0 Z " fill="#E59A52" transform="translate(304,158)"/>
<path d="M0 0 C1.1875 1.625 1.1875 1.625 2 4 C0.625 7.25 0.625 7.25 -1 10 C-1.66 10 -2.32 10 -3 10 C-3 9.34 -3 8.68 -3 8 C-3.66 8 -4.32 8 -5 8 C-4.67 6.68 -4.34 5.36 -4 4 C-2.02 4.495 -2.02 4.495 0 5 C0 3.35 0 1.7 0 0 Z " fill="#EBA154" transform="translate(149,386)"/>
<path d="M0 0 C0 0.33 0 0.66 0 1 C-5.28 1.66 -10.56 2.32 -16 3 C-16 2.34 -16 1.68 -16 1 C-10.28728907 -1.0662997 -5.96345767 -1.0006709 0 0 Z " fill="#E29752" transform="translate(285,262)"/>
<path d="M0 0 C0 0.66 0 1.32 0 2 C-1.32 2 -2.64 2 -4 2 C-4 2.66 -4 3.32 -4 4 C-5.65 4.33 -7.3 4.66 -9 5 C-9.66 4.01 -10.32 3.02 -11 2 C-7.17679443 0.57741188 -4.08718695 -0.24042276 0 0 Z " fill="#E8770E" transform="translate(373,241)"/>
<path d="M0 0 C0 0.66 0 1.32 0 2 C-1.4317616 2.69937202 -2.87067032 3.38412718 -4.3125 4.0625 C-5.51326172 4.63677734 -5.51326172 4.63677734 -6.73828125 5.22265625 C-9 6 -9 6 -12 5 C-10.73223544 2.46447088 -9.53176935 2.15080425 -7 1 C-4.53721199 -0.231394 -2.7204945 -0.07159196 0 0 Z " fill="#E6730D" transform="translate(377,122)"/>
<path d="M0 0 C1.32 0 2.64 0 4 0 C2.6062718 4.43458973 0.39417765 6.87378374 -3 10 C-3 9.01 -3 8.02 -3 7 C-2.34 7 -1.68 7 -1 7 C-0.67 4.69 -0.34 2.38 0 0 Z " fill="#E4994A" transform="translate(166,363)"/>
<path d="M0 0 C0.66 0 1.32 0 2 0 C0.6062718 4.43458973 -1.60582235 6.87378374 -5 10 C-5 8.02 -5 6.04 -5 4 C-4.01 4 -3.02 4 -2 4 C-2 3.34 -2 2.68 -2 2 C-1.34 2 -0.68 2 0 2 C0 1.34 0 0.68 0 0 Z " fill="#E6A264" transform="translate(176,352)"/>
<path d="M0 0 C1.41377341 2.63904371 2.37240135 5.07120629 3 8 C0.69 8 -1.62 8 -4 8 C-3.34 6.35 -2.68 4.7 -2 3 C-1.34 3 -0.68 3 0 3 C0 2.01 0 1.02 0 0 Z " fill="#E8933B" transform="translate(276,228)"/>
<path d="M0 0 C-0.66 0.66 -1.32 1.32 -2 2 C-2 2.33 -2 2.66 -2 3 C-5.63 3.33 -9.26 3.66 -13 4 C-5.1322314 -1.90082645 -5.1322314 -1.90082645 0 0 Z " fill="#E59C50" transform="translate(269,83)"/>
<path d="M0 0 C0.33 0.99 0.66 1.98 1 3 C-0.2375 2.938125 -1.475 2.87625 -2.75 2.8125 C-5.78211302 2.79637174 -6.82248296 2.89348977 -9.5 4.5 C-9.995 4.995 -10.49 5.49 -11 6 C-11.66 5.67 -12.32 5.34 -13 5 C-8.58490204 0.69258736 -6.42286118 -0.64228612 0 0 Z " fill="#E3A367" transform="translate(384,31)"/>
<path d="M0 0 C1.32 0.33 2.64 0.66 4 1 C2.52307692 6.66153846 2.52307692 6.66153846 -0.125 8.375 C-0.74375 8.58125 -1.3625 8.7875 -2 9 C-2.33 8.01 -2.66 7.02 -3 6 C-1.68 6 -0.36 6 1 6 C0.67 4.02 0.34 2.04 0 0 Z " fill="#E78B30" transform="translate(116,441)"/>
<path d="M0 0 C2 1 2 1 3 2 C2.71269945 4.33944736 2.38063221 6.6739143 2 9 C1.34 9 0.68 9 0 9 C0 9.66 0 10.32 0 11 C-0.66 11 -1.32 11 -2 11 C-1.649375 10.0925 -1.29875 9.185 -0.9375 8.25 C-0.01484777 5.05147227 0.0074052 4.02221559 -1 1 C-0.67 0.67 -0.34 0.34 0 0 Z " fill="#E48E34" transform="translate(306,362)"/>
<path d="M0 0 C0.66 0 1.32 0 2 0 C3.59162079 5.57067277 4.20674944 10.21101581 4 16 C1.72525723 12.58788584 1.43370356 10.3431471 0.875 6.3125 C0.70742187 5.13300781 0.53984375 3.95351563 0.3671875 2.73828125 C0.24601562 1.83464844 0.12484375 0.93101562 0 0 Z " fill="#DF9548" transform="translate(109,350)"/>
<path d="M0 0 C0 0.66 0 1.32 0 2 C-3.41831915 4.5393228 -5.75776898 5.3636198 -10 5 C-10 4.01 -10 3.02 -10 2 C-8.7090864 1.66376204 -7.41723903 1.33110751 -6.125 1 C-5.40570313 0.814375 -4.68640625 0.62875 -3.9453125 0.4375 C-2 0 -2 0 0 0 Z " fill="#E69542" transform="translate(315,318)"/>
<path d="M0 0 C-5.14285714 4.42857143 -5.14285714 4.42857143 -9 5 C-9 4.34 -9 3.68 -9 3 C-9.66 2.67 -10.32 2.34 -11 2 C-9.73392393 1.46770674 -8.46189588 0.94955456 -7.1875 0.4375 C-6.47980469 0.14746094 -5.77210938 -0.14257812 -5.04296875 -0.44140625 C-3 -1 -3 -1 0 0 Z " fill="#E47711" transform="translate(346,305)"/>
<path d="M0 0 C1.32 0.66 2.64 1.32 4 2 C3.67 3.65 3.34 5.3 3 7 C1.35 7 -0.3 7 -2 7 C-1.125 2.25 -1.125 2.25 0 0 Z " fill="#EB983E" transform="translate(244,279)"/>
<path d="M0 0 C0.33 1.32 0.66 2.64 1 4 C0.01 4.66 -0.98 5.32 -2 6 C-2.72382467 8.05925139 -2.72382467 8.05925139 -3 10 C-4.32 10 -5.64 10 -7 10 C-7 9.34 -7 8.68 -7 8 C-6.34 8 -5.68 8 -5 8 C-4.731875 7.4225 -4.46375 6.845 -4.1875 6.25 C-2.98280141 3.9674132 -1.59201885 2.0262058 0 0 Z " fill="#E29A50" transform="translate(182,367)"/>
<path d="M0 0 C0.66 0 1.32 0 2 0 C0.68775452 3.93673644 -0.91910327 6.22719294 -4 9 C-4.33 7.02 -4.66 5.04 -5 3 C-3.68 3.33 -2.36 3.66 -1 4 C-0.67 2.68 -0.34 1.36 0 0 Z " fill="#E9A862" transform="translate(256,236)"/>
<path d="M0 0 C1.7607347 2.64110204 3.00960644 5.03305734 4.25 7.9375 C4.62640625 8.79214844 5.0028125 9.64679688 5.390625 10.52734375 C6 13 6 13 5.109375 15.31640625 C4.74328125 15.87199219 4.3771875 16.42757812 4 17 C3.32635339 14.91891315 2.66133202 12.8350329 2 10.75 C1.62875 9.58984375 1.2575 8.4296875 0.875 7.234375 C0 4 0 4 0 0 Z " fill="#DC9A57" transform="translate(217,186)"/>
<path d="M0 0 C1 2 1 2 0.0625 5.125 C-0.288125 6.07375 -0.63875 7.0225 -1 8 C-2.65 8 -4.3 8 -6 8 C-4.625 5.5 -4.625 5.5 -3 3 C-2.34 3 -1.68 3 -1 3 C-0.67 2.01 -0.34 1.02 0 0 Z " fill="#E9A55D" transform="translate(165,150)"/>
<path d="M0 0 C0 0.66 0 1.32 0 2 C0.66 2 1.32 2 2 2 C0.25 6.875 0.25 6.875 -2 8 C-2.66 5.69 -3.32 3.38 -4 1 C-2 0 -2 0 0 0 Z " fill="#E99237" transform="translate(332,116)"/>
<path d="M0 0 C0.99 0 1.98 0 3 0 C3 0.66 3 1.32 3 2 C2.34 2 1.68 2 1 2 C0.896875 2.598125 0.79375 3.19625 0.6875 3.8125 C-0.08876455 6.28243264 -1.07088921 7.32251235 -3 9 C-3.33 7.68 -3.66 6.36 -4 5 C-3.01 4.67 -2.02 4.34 -1 4 C-0.26676204 1.98491642 -0.26676204 1.98491642 0 0 Z " fill="#E5A057" transform="translate(337,109)"/>
<path d="M0 0 C2.0625 1.4375 2.0625 1.4375 4 4 C4.05823431 7.07583023 3.59222907 9.98735648 3 13 C2.67 13 2.34 13 2 13 C1.47212358 11.02270019 0.95287097 9.04309608 0.4375 7.0625 C0.00244141 5.40927734 0.00244141 5.40927734 -0.44140625 3.72265625 C-0.62574219 2.82417969 -0.81007812 1.92570312 -1 1 C-0.67 0.67 -0.34 0.34 0 0 Z " fill="#E29544" transform="translate(186,303)"/>
<path d="M0 0 C0.66 0 1.32 0 2 0 C3.125 3.75 3.125 3.75 2 6 C1.34 6 0.68 6 0 6 C-0.66 7.32 -1.32 8.64 -2 10 C-2.17942163 6.05272412 -2.09350689 3.4019487 0 0 Z " fill="#E99644" transform="translate(287,209)"/>
<path d="M0 0 C-3.4352048 2.29013653 -4.985331 2.17842973 -9 2 C-9 2.66 -9 3.32 -9 4 C-10.65 4 -12.3 4 -14 4 C-10.71830109 -0.24690447 -5.03017099 -2.0120684 0 0 Z " fill="#DE8A38" transform="translate(346,191)"/>
<path d="M0 0 C2.64 0.33 5.28 0.66 8 1 C4.20458337 3.21399303 0.24370579 4.00980198 -4 5 C-4 4.34 -4 3.68 -4 3 C-3.01 2.67 -2.02 2.34 -1 2 C-0.67 1.34 -0.34 0.68 0 0 Z " fill="#E49241" transform="translate(320,310)"/>
<path d="M0 0 C0.99 0.33 1.98 0.66 3 1 C0.525 5.455 0.525 5.455 -2 10 C-2.66 8.68 -3.32 7.36 -4 6 C-3.01 6 -2.02 6 -1 6 C-1.020625 5.195625 -1.04125 4.39125 -1.0625 3.5625 C-1 1 -1 1 0 0 Z " fill="#E39144" transform="translate(269,213)"/>
<path d="M0 0 C2.00841268 0.01421885 4.01537247 0.13420475 6.01953125 0.265625 C5.01953125 2.265625 5.01953125 2.265625 2.76953125 3.390625 C0.0033983 4.27075821 -2.10095226 4.4301688 -4.98046875 4.265625 C-3.72152968 1.74774686 -2.88459378 0.38688832 0 0 Z " fill="#E37410" transform="translate(377.98046875,176.734375)"/>
<path d="M0 0 C1.32 0 2.64 0 4 0 C2.75023244 3.65316671 2.32901247 4.78065836 -1 7 C-1.04254356 5.00045254 -1.04080783 2.99958364 -1 1 C-0.67 0.67 -0.34 0.34 0 0 Z " fill="#E79848" transform="translate(120,439)"/>
<path d="M0 0 C0.99 0 1.98 0 3 0 C2.79375 0.78375 2.5875 1.5675 2.375 2.375 C2.25125 3.24125 2.1275 4.1075 2 5 C2.66 5.66 3.32 6.32 4 7 C2.35 6.67 0.7 6.34 -1 6 C-1.042721 4.33388095 -1.04063832 2.66617115 -1 1 C-0.67 0.67 -0.34 0.34 0 0 Z " fill="#E29648" transform="translate(135,406)"/>
<path d="M0 0 C0.99 0.66 1.98 1.32 3 2 C-2.94 2.495 -2.94 2.495 -9 3 C-9 2.34 -9 1.68 -9 1 C-5.98131566 -0.50934217 -3.32702771 -0.17510672 0 0 Z " fill="#E19C55" transform="translate(237,379)"/>
<path d="M0 0 C0.66 0 1.32 0 2 0 C1.125 4.75 1.125 4.75 0 7 C-1.32 6.34 -2.64 5.68 -4 5 C-3.67 3.68 -3.34 2.36 -3 1 C-2.01 1.99 -1.02 2.98 0 4 C0 2.68 0 1.36 0 0 Z " fill="#DF9D58" transform="translate(158,375)"/>
<path d="M0 0 C0.66 0 1.32 0 2 0 C2.33 2.64 2.66 5.28 3 8 C1.68 7.67 0.36 7.34 -1 7 C-0.67 4.69 -0.34 2.38 0 0 Z " fill="#F28813" transform="translate(138,368)"/>
<path d="M0 0 C0.99 0 1.98 0 3 0 C3.1875 2.375 3.1875 2.375 3 5 C2.01 5.66 1.02 6.32 0 7 C0 6.01 0 5.02 0 4 C-0.66 4 -1.32 4 -2 4 C-2 3.34 -2 2.68 -2 2 C-1.34 2 -0.68 2 0 2 C0 1.34 0 0.68 0 0 Z " fill="#EB9336" transform="translate(160,370)"/>
<path d="M0 0 C-0.33 0.99 -0.66 1.98 -1 3 C-4.375 3.625 -4.375 3.625 -8 4 C-8.66 3.34 -9.32 2.68 -10 2 C-8.71211992 1.46987262 -7.41953322 0.9511671 -6.125 0.4375 C-5.40570313 0.14746094 -4.68640625 -0.14257812 -3.9453125 -0.44140625 C-2 -1 -2 -1 0 0 Z " fill="#E69649" transform="translate(330,313)"/>
<path d="M0 0 C1.1875 1.625 1.1875 1.625 2 4 C0.625 7.25 0.625 7.25 -1 10 C-1.33 10 -1.66 10 -2 10 C-2 7.03 -2 4.06 -2 1 C-1.34 0.67 -0.68 0.34 0 0 Z " fill="#E79E4F" transform="translate(379,262)"/>
<path d="M0 0 C1 2 1 2 0.375 5.5 C-0.305625 7.2325 -0.305625 7.2325 -1 9 C-2.65 9.66 -4.3 10.32 -6 11 C-4.02 7.37 -2.04 3.74 0 0 Z " fill="#E6A25E" transform="translate(271,236)"/>
<path d="M0 0 C0.66 0.99 1.32 1.98 2 3 C1.125 5.6875 1.125 5.6875 0 8 C-0.66 8 -1.32 8 -2 8 C-2.33 6.02 -2.66 4.04 -3 2 C-2.01 2 -1.02 2 0 2 C0 1.34 0 0.68 0 0 Z " fill="#E99239" transform="translate(237,239)"/>
<path d="M0 0 C0.75 1.5625 0.75 1.5625 1 4 C-0.13084437 6.50286409 -1.52139516 8.67007722 -3 11 C-3.66 11 -4.32 11 -5 11 C-3.77472971 6.94718288 -2.30119506 3.55639236 0 0 Z " fill="#E29E5E" transform="translate(132,196)"/>
<path d="M0 0 C0.33333333 1.33333333 0.66666667 2.66666667 1 4 C1.185625 4.598125 1.37125 5.19625 1.5625 5.8125 C2.17700838 8.88504188 2.06006223 11.87676408 2 15 C1.67 15 1.34 15 1 15 C0.44426249 12.87863638 -0.09421768 10.75274479 -0.625 8.625 C-0.92664063 7.44164062 -1.22828125 6.25828125 -1.5390625 5.0390625 C-1.69117188 4.03617187 -1.84328125 3.03328125 -2 2 C-1.34 1.34 -0.68 0.68 0 0 Z " fill="#E39440" transform="translate(265,121)"/>
<path d="M0 0 C1.42944945 2.35438733 2.08661261 3.48032433 1.625 6.25 C1.41875 6.8275 1.2125 7.405 1 8 C-0.32 8 -1.64 8 -3 8 C-1.125 2.25 -1.125 2.25 0 0 Z " fill="#E6994E" transform="translate(342,112)"/>
<path d="M0 0 C0.99 0.66 1.98 1.32 3 2 C2.34 2 1.68 2 1 2 C1 3.98 1 5.96 1 8 C-0.32 8.33 -1.64 8.66 -3 9 C-2.44271087 5.65626525 -1.64826111 2.96687001 0 0 Z " fill="#E48B36" transform="translate(346,105)"/>
<path d="M0 0 C0.65234375 1.734375 0.65234375 1.734375 1 4 C0.00390625 6.140625 0.00390625 6.140625 -1.4375 8.25 C-1.91058594 8.95640625 -2.38367188 9.6628125 -2.87109375 10.390625 C-3.24363281 10.92171875 -3.61617188 11.4528125 -4 12 C-4.33 11.34 -4.66 10.68 -5 10 C-4.00390625 7.6171875 -4.00390625 7.6171875 -2.5625 4.875 C-1.85287109 3.50988281 -1.85287109 3.50988281 -1.12890625 2.1171875 C-0.75636719 1.41851562 -0.38382812 0.71984375 0 0 Z " fill="#DF954C" transform="translate(352,93)"/>
<path d="M0 0 C0.33 0 0.66 0 1 0 C1 1.65 1 3.3 1 5 C0.360625 5.28875 -0.27875 5.5775 -0.9375 5.875 C-3.15206079 6.82823451 -3.15206079 6.82823451 -4 9 C-4.66 9 -5.32 9 -6 9 C-4.47300326 5.56425733 -2.44973747 2.84485642 0 0 Z " fill="#E59F52" transform="translate(119,425)"/>
<path d="M0 0 C2.64 0 5.28 0 8 0 C6.1875 2 6.1875 2 4 4 C3.01 4 2.02 4 1 4 C0.67 2.68 0.34 1.36 0 0 Z " fill="#E19342" transform="translate(266,396)"/>
<path d="M0 0 C0.66 1.32 1.32 2.64 2 4 C0.68 5.32 -0.64 6.64 -2 8 C-2.33 6.02 -2.66 4.04 -3 2 C-2.01 1.34 -1.02 0.68 0 0 Z " fill="#E6913E" transform="translate(349,317)"/>
<path d="M0 0 C1 4 1 4 0 7 C-2.5625 8.1875 -2.5625 8.1875 -5 9 C-3.35 6.03 -1.7 3.06 0 0 Z " fill="#DF9E57" transform="translate(260,254)"/>
<path d="M0 0 C1.57554035 2.88628401 2.46276373 5.53342384 3.125 8.75 C3.29257813 9.54921875 3.46015625 10.3484375 3.6328125 11.171875 C3.81457031 12.07679688 3.81457031 12.07679688 4 13 C3.34 13 2.68 13 2 13 C-0.24828052 8.50343896 -0.16682272 4.92127034 0 0 Z " fill="#DD9350" transform="translate(223,231)"/>
<path d="M0 0 C-3.69172595 3.53790403 -7.09390595 3.59115883 -12 4 C-11 2 -11 2 -9.00390625 1.11328125 C-7.79541016 0.71689453 -7.79541016 0.71689453 -6.5625 0.3125 C-5.75941406 0.04050781 -4.95632813 -0.23148437 -4.12890625 -0.51171875 C-2 -1 -2 -1 0 0 Z " fill="#E39E5A" transform="translate(291,74)"/>
<path d="M0 0 C0.66 0.33 1.32 0.66 2 1 C1.34 2.65 0.68 4.3 0 6 C-1.98 5.34 -3.96 4.68 -6 4 C-4.03617993 2.49440461 -2.21736634 1.10868317 0 0 Z " fill="#E4994C" transform="translate(352,48)"/>
<path d="M0 0 C1.65 0 3.3 0 5 0 C3.38405168 2.04119788 1.7143618 4.04072937 0 6 C-0.66 6 -1.32 6 -2 6 C-1.34 4.02 -0.68 2.04 0 0 Z " fill="#E4A35F" transform="translate(111,450)"/>
<path d="M0 0 C2.97 0.495 2.97 0.495 6 1 C4.68 2.32 3.36 3.64 2 5 C1.01 4.34 0.02 3.68 -1 3 C-0.67 2.01 -0.34 1.02 0 0 Z " fill="#EBA14A" transform="translate(132,424)"/>
<path d="M0 0 C-6.625 3 -6.625 3 -10 3 C-10 2.01 -10 1.02 -10 0 C-6.33694766 -0.74926071 -3.57644848 -1.2380014 0 0 Z " fill="#E29B5B" transform="translate(239,415)"/>
<path d="M0 0 C0.33 0.99 0.66 1.98 1 3 C-1.25 4.125 -1.25 4.125 -4 5 C-6.3125 4.125 -6.3125 4.125 -8 3 C-5.36 2.01 -2.72 1.02 0 0 Z " fill="#E7954C" transform="translate(285,370)"/>
<path d="M0 0 C0.33 0.66 0.66 1.32 1 2 C2.32 1.67 3.64 1.34 5 1 C5.66 2.32 6.32 3.64 7 5 C4.69 4.67 2.38 4.34 0 4 C0 3.34 0 2.68 0 2 C-0.66 1.67 -1.32 1.34 -2 1 C-1.34 0.67 -0.68 0.34 0 0 Z " fill="#F2973B" transform="translate(251,323)"/>
<path d="M0 0 C1.32 0 2.64 0 4 0 C2.92598892 2.91517292 2.22189824 4.77810176 0 7 C-0.38133299 5.0085944 -0.71325582 3.00720923 -1 1 C-0.67 0.67 -0.34 0.34 0 0 Z " fill="#E79648" transform="translate(212,298)"/>
<path d="M0 0 C1 2 1 2 0.44140625 4.1640625 C0.15136719 4.97617188 -0.13867188 5.78828125 -0.4375 6.625 C-0.72496094 7.44226563 -1.01242188 8.25953125 -1.30859375 9.1015625 C-1.53675781 9.72804687 -1.76492187 10.35453125 -2 11 C-2.33 11 -2.66 11 -3 11 C-2.88590407 9.54077307 -2.75834456 8.08259402 -2.625 6.625 C-2.55539063 5.81289062 -2.48578125 5.00078125 -2.4140625 4.1640625 C-2 2 -2 2 0 0 Z " fill="#DF8F42" transform="translate(121,220)"/>
<path d="M0 0 C-0.33 0.66 -0.66 1.32 -1 2 C-3.64860427 2.59355614 -6.29197322 2.74209269 -9 3 C-9.33 2.34 -9.66 1.68 -10 1 C-6.78548731 -0.60725635 -3.56387464 -0.05748185 0 0 Z " fill="#E1984F" transform="translate(322,191)"/>
<path d="M0 0 C0.95465783 2.16967689 1.14401212 3.56328793 0.3984375 5.82421875 C-0.35870385 7.5684743 -1.17609198 9.28627131 -2 11 C-2.99 11 -3.98 11 -5 11 C-3.55049545 7.2089881 -1.84827434 3.6125362 0 0 Z " fill="#E39F56" transform="translate(307,176)"/>
<path d="M0 0 C0.66 0 1.32 0 2 0 C2.1875 2.875 2.1875 2.875 2 6 C1.01 6.66 0.02 7.32 -1 8 C-1.66 7.34 -2.32 6.68 -3 6 C-2.505 5.195625 -2.01 4.39125 -1.5 3.5625 C0.08419653 1.35103815 0.08419653 1.35103815 0 0 Z " fill="#E79447" transform="translate(130,410)"/>
<path d="M0 0 C0.66 0 1.32 0 2 0 C0.86280581 3.41158256 -0.04342944 4.11854601 -3 6 C-3.66 6 -4.32 6 -5 6 C-4.67 4.35 -4.34 2.7 -4 1 C-2.02 1.495 -2.02 1.495 0 2 C0 1.34 0 0.68 0 0 Z " fill="#DF964B" transform="translate(288,384)"/>
<path d="M0 0 C2.475 0.495 2.475 0.495 5 1 C5 1.66 5 2.32 5 3 C2.5 4.625 2.5 4.625 0 6 C0 4.02 0 2.04 0 0 Z " fill="#EB9B4F" transform="translate(292,378)"/>
<path d="M0 0 C0 0.99 0 1.98 0 3 C-3 5 -3 5 -6 5 C-6 4.01 -6 3.02 -6 2 C-2.25 0 -2.25 0 0 0 Z " fill="#E57912" transform="translate(299,363)"/>
<path d="M0 0 C0 3.58534593 -1.02362045 5.07495826 -3 8 C-3.33 8 -3.66 8 -4 8 C-4 6.02 -4 4.04 -4 2 C-2.68 1.34 -1.36 0.68 0 0 Z " fill="#E9A35E" transform="translate(247,251)"/>
<path d="M0 0 C0.33 0.66 0.66 1.32 1 2 C-0.32 2 -1.64 2 -3 2 C-3 2.99 -3 3.98 -3 5 C-5.31 4.67 -7.62 4.34 -10 4 C-6.77484237 2.26337666 -3.48670834 1.1094072 0 0 Z " fill="#E28C40" transform="translate(358,185)"/>
<path d="M0 0 C0.66 0.33 1.32 0.66 2 1 C0.70525365 3.58949269 -0.32663393 3.96035764 -3 5 C-5.75 5.125 -5.75 5.125 -8 5 C-5.45378681 2.99940392 -3.01962385 1.20784954 0 0 Z " fill="#DF9343" transform="translate(239,94)"/>
<path d="M0 0 C0.33 0.99 0.66 1.98 1 3 C0 4 0 4 -1.84765625 4.09765625 C-3.8984375 4.06510417 -5.94921875 4.03255208 -8 4 C-5.33440687 2.22293791 -2.9719385 1.12451727 0 0 Z " fill="#E69E4D" transform="translate(340,54)"/>
<path d="M0 0 C0.33 0 0.66 0 1 0 C1.1875 2.375 1.1875 2.375 1 5 C0.01 5.66 -0.98 6.32 -2 7 C-2.99 6.67 -3.98 6.34 -5 6 C-3.35830472 3.97945196 -1.69088222 1.97956942 0 0 Z " fill="#E6A45E" transform="translate(147,408)"/>
<path d="M0 0 C0 0.66 0 1.32 0 2 C-2.31 2 -4.62 2 -7 2 C-7.33 1.34 -7.66 0.68 -8 0 C-5.13822943 -1.43088528 -3.06624227 -0.59991697 0 0 Z " fill="#F58A16" transform="translate(272,380)"/>
<path d="M0 0 C0.99 0 1.98 0 3 0 C3 0.66 3 1.32 3 2 C-1.47058824 6 -1.47058824 6 -4 6 C-3.67 4.68 -3.34 3.36 -3 2 C-2.01 2 -1.02 2 0 2 C0 1.34 0 0.68 0 0 Z " fill="#E49C50" transform="translate(301,373)"/>
<path d="M0 0 C0.33 0 0.66 0 1 0 C1.08121924 1.60332791 1.13929134 3.20784026 1.1875 4.8125 C1.23970703 6.15248047 1.23970703 6.15248047 1.29296875 7.51953125 C0.95081002 10.41647515 0.24606427 11.22555028 -2 13 C-2 11.35 -2 9.7 -2 8 C-1.34 8 -0.68 8 0 8 C0 5.36 0 2.72 0 0 Z " fill="#E5A460" transform="translate(319,132)"/>
<path d="M0 0 C-1.24976756 3.65316671 -1.67098753 4.78065836 -5 7 C-5.1875 4.625 -5.1875 4.625 -5 2 C-2 0 -2 0 0 0 Z " fill="#DE8E42" transform="translate(353,89)"/>
<path d="M0 0 C1.32 0 2.64 0 4 0 C4 0.66 4 1.32 4 2 C1.69 3.32 -0.62 4.64 -3 6 C-3 5.01 -3 4.02 -3 3 C-2.01 3 -1.02 3 0 3 C0 2.01 0 1.02 0 0 Z " fill="#DF8E40" transform="translate(278,390)"/>
<path d="M0 0 C1.32 0 2.64 0 4 0 C3.39816251 2.02045442 2.72693904 4.02111039 2 6 C1.01 6.495 1.01 6.495 0 7 C-0.33 5.68 -0.66 4.36 -1 3 C-0.34 3 0.32 3 1 3 C0.67 2.01 0.34 1.02 0 0 Z " fill="#E08837" transform="translate(178,345)"/>
<path d="M0 0 C0.99 0.33 1.98 0.66 3 1 C1.515 4.465 1.515 4.465 0 8 C-0.33 8 -0.66 8 -1 8 C-1.04241723 5.66705225 -1.04092937 3.33297433 -1 1 C-0.67 0.67 -0.34 0.34 0 0 Z " fill="#E99646" transform="translate(355,308)"/>
<path d="M0 0 C2.97 0.495 2.97 0.495 6 1 C5.67 1.99 5.34 2.98 5 4 C4.34 4 3.68 4 3 4 C2.67 4.66 2.34 5.32 2 6 C2 4.68 2 3.36 2 2 C1.34 2 0.68 2 0 2 C0 1.34 0 0.68 0 0 Z " fill="#EB9A4D" transform="translate(206,304)"/>
<path d="M0 0 C1.88391785 3.26545761 2.49287967 6.28111761 3 10 C2.01 9.34 1.02 8.68 0 8 C-0.40843923 5.28796348 -0.13336867 2.7562858 0 0 Z " fill="#E09049" transform="translate(229,251)"/>
<path d="M0 0 C0.33 0.66 0.66 1.32 1 2 C0.0625 4.125 0.0625 4.125 -1 6 C-2.65 6 -4.3 6 -6 6 C-4 4 -2 2 0 0 Z " fill="#E5A155" transform="translate(197,120)"/>
<path d="M0 0 C0.33 0.99 0.66 1.98 1 3 C-0.4375 5.1875 -0.4375 5.1875 -2 7 C-2.33 5.02 -2.66 3.04 -3 1 C-2.01 0.67 -1.02 0.34 0 0 Z " fill="#E99745" transform="translate(323,114)"/>
<path d="M0 0 C-3.00617269 3.00617269 -5.82381598 2.59585316 -10 3 C-9 1 -9 1 -6.6875 -0.1875 C-3.88010429 -1.03624754 -2.698065 -0.99928333 0 0 Z " fill="#E09C56" transform="translate(279,79)"/>
</svg>
